<?xml version="1.0" encoding="UTF-8" standalone="no"?>
<!-- Generator: Adobe Illustrator 14.0.0, SVG Export Plug-In . SVG Version: 6.00 Build 43363)  -->

<svg
	xmlns:osb="http://www.openswatchbook.org/uri/2009/osb"
	xmlns:dc="http://purl.org/dc/elements/1.1/"
	xmlns:cc="http://creativecommons.org/ns#"
	xmlns:rdf="http://www.w3.org/1999/02/22-rdf-syntax-ns#"
	xmlns="http://www.w3.org/2000/svg"
	xmlns:xlink="http://www.w3.org/1999/xlink"
	xmlns:sodipodi="http://sodipodi.sourceforge.net/DTD/sodipodi-0.dtd"
	xmlns:inkscape="http://www.inkscape.org/namespaces/inkscape"
	version="1.1"
	x="0px"
	y="0px"
	width="136.53334"
	height="136.53334"
	viewBox="0 0 128 128"
	enable-background="new 0 0 780 650"
	xml:space="preserve"
	id="svg2"
	inkscape:version="0.92.1 r15371"
	sodipodi:docname="menu_link.svg"><metadata
     id="metadata1456"><rdf:RDF><cc:Work
         rdf:about=""><dc:format>image/svg+xml</dc:format><dc:type
	rdf:resource="http://purl.org/dc/dcmitype/StillImage"/></cc:Work></rdf:RDF></metadata>
	<defs
		id="defs1454"><clipPath
       clipPathUnits="userSpaceOnUse"
       id="clipPath9180"><ellipse
         style="fill:#a9a9a9;fill-opacity:1;fill-rule:evenodd;stroke:none"
         id="path9182"
         transform="matrix(1.3993902,0,0,1.1907217,3.486295,1.0575123)"
         cx="43.980995"
         cy="52.105968"
         rx="43.980995"
         ry="52.026299" /></clipPath>
		<clipPath
			clipPathUnits="userSpaceOnUse"
			id="clipPath9184"><ellipse
         style="fill:#a9a9a9;fill-opacity:1;fill-rule:evenodd;stroke:none"
         id="path9186"
         transform="matrix(0.1815424,0,0,0.1544719,788.01368,700.63965)"
         cx="43.980995"
         cy="52.105968"
         rx="43.980995"
         ry="52.026299" /></clipPath>
		<linearGradient
			id="linearGradient19282"
			osb:paint="solid"
			gradientTransform="matrix(0,0,0,0,-5525.5174,-16387.922)"><stop
         style="stop-color:#666666;stop-opacity:1;"
         offset="0"
         id="stop19284" /></linearGradient>
		<style
			type="text/css"
			id="style2988">
    .fil0 {fill:#006C3B}
    .fil1 {fill:#77C06C}
   </style>
		<style
			type="text/css"
			id="style2988-7">
    .fil0 {fill:#006C3B}
    .fil1 {fill:#77C06C}
   </style></defs>
	<sodipodi:namedview
		pagecolor="#ffffff"
		bordercolor="#666666"
		borderopacity="1"
		objecttolerance="10"
		gridtolerance="10"
		guidetolerance="10"
		inkscape:pageopacity="0"
		inkscape:pageshadow="2"
		inkscape:window-width="1236"
		inkscape:window-height="848"
		id="namedview1452"
		showgrid="false"
		inkscape:zoom="4.6069334"
		inkscape:cx="69.407708"
		inkscape:cy="68.26667"
		inkscape:window-x="498"
		inkscape:window-y="39"
		inkscape:window-maximized="0"
		inkscape:current-layer="svg2"/>
	<g
		id="Help"
		transform="matrix(7.7083383,0,0,7.7083383,-6070.7897,-5399.7099)"
		clip-path="url(#clipPath9184)"><path
       d="m 509.778,597.159 c -12.427,0 -22.5,10.074 -22.5,22.5 0,12.428 10.073,22.5 22.5,22.5 12.427,0 22.5,-10.072 22.5,-22.5 -10e-4,-12.426 -10.073,-22.5 -22.5,-22.5 z m -0.559,36.414 c -1.676,0 -3.054,-1.379 -3.054,-3.055 0,-1.676 1.378,-3.053 3.054,-3.053 1.677,0 3.054,1.377 3.054,3.053 0,1.676 -1.377,3.055 -3.054,3.055 z m 2.904,-11.791 c -0.892,1.305 -0.594,3.129 -3.052,3.129 -1.602,0 -2.385,-1.305 -2.385,-2.496 0,-4.432 6.519,-5.436 6.519,-9.086 0,-2.012 -1.34,-3.203 -3.576,-3.203 -4.767,0 -2.905,4.916 -6.518,4.916 -1.304,0 -2.421,-0.783 -2.421,-2.271 0,-3.65 4.172,-6.891 8.714,-6.891 4.769,0 9.46,2.197 9.46,7.449 10e-4,4.842 -5.55,6.703 -6.741,8.453 z"
       id="path695"
       inkscape:connector-curvature="0"
       style="fill:#333333" /></g>
	<style
		id="style8"
		type="text/css">
      .Border { fill: lightGray; stroke: black; stroke-width: 4; }
      .Label { font-size:24; font-family:Arial; fill:black; }
   </style>
	<style
		id="style8-7"
		type="text/css">
      .Border { fill: lightGray; stroke: black; stroke-width: 4; }
      .Label { font-size:24; font-family:Arial; fill:black; }
   </style>
	<style
		id="style8-3"
		type="text/css">
      .Border { fill: lightGray; stroke: black; stroke-width: 4; }
      .Label { font-size:24; font-family:Arial; fill:black; }
   </style>
	<style
		id="style8-6"
		type="text/css">
      .Border { fill: lightGray; stroke: black; stroke-width: 4; }
      .Label { font-size:24; font-family:Arial; fill:black; }
   </style>
	<style
		type="text/css"
		id="style8-1">
      .Border { fill: lightGray; stroke: black; stroke-width: 4; }
      .Label { font-size:24; font-family:Arial; fill:black; }
   </style>
	<style
		type="text/css"
		id="style8-7-0">
      .Border { fill: lightGray; stroke: black; stroke-width: 4; }
      .Label { font-size:24; font-family:Arial; fill:black; }
   </style>
	<style
		type="text/css"
		id="style8-3-2">
      .Border { fill: lightGray; stroke: black; stroke-width: 4; }
      .Label { font-size:24; font-family:Arial; fill:black; }
   </style>
	<style
		type="text/css"
		id="style8-6-7">
      .Border { fill: lightGray; stroke: black; stroke-width: 4; }
      .Label { font-size:24; font-family:Arial; fill:black; }
   </style>
	<path
		style="fill:#333333;fill-opacity:1;fill-rule:evenodd;stroke:none"
		d=""
		id="path7612"
		inkscape:connector-curvature="0"
		clip-path="url(#clipPath9180)"/>
	<path
		style="fill:#a9a9a9;fill-opacity:1;fill-rule:evenodd;stroke:none"
		d=""
		id="path3075"
		inkscape:connector-curvature="0"/>
	<path
		style="fill:#a9a9a9;fill-opacity:1;fill-rule:evenodd;stroke:none"
		d=""
		id="path3079"
		inkscape:connector-curvature="0"/>
	<style
		id="style8-35"
		type="text/css">
      .Border { fill: lightGray; stroke: black; stroke-width: 4; }
      .Label { font-size:24; font-family:Arial; fill:black; }
   </style>
	<style
		id="style8-7-6"
		type="text/css">
      .Border { fill: lightGray; stroke: black; stroke-width: 4; }
      .Label { font-size:24; font-family:Arial; fill:black; }
   </style>
	<style
		id="style8-3-29"
		type="text/css">
      .Border { fill: lightGray; stroke: black; stroke-width: 4; }
      .Label { font-size:24; font-family:Arial; fill:black; }
   </style>
	<style
		id="style8-6-1"
		type="text/css">
      .Border { fill: lightGray; stroke: black; stroke-width: 4; }
      .Label { font-size:24; font-family:Arial; fill:black; }
   </style>
	<style
		type="text/css"
		id="style8-1-2">
      .Border { fill: lightGray; stroke: black; stroke-width: 4; }
      .Label { font-size:24; font-family:Arial; fill:black; }
   </style>
	<style
		type="text/css"
		id="style8-7-0-7">
      .Border { fill: lightGray; stroke: black; stroke-width: 4; }
      .Label { font-size:24; font-family:Arial; fill:black; }
   </style>
	<style
		type="text/css"
		id="style8-3-2-0">
      .Border { fill: lightGray; stroke: black; stroke-width: 4; }
      .Label { font-size:24; font-family:Arial; fill:black; }
   </style>
	<style
		type="text/css"
		id="style8-6-7-9">
      .Border { fill: lightGray; stroke: black; stroke-width: 4; }
      .Label { font-size:24; font-family:Arial; fill:black; }
   </style>
	<g
		id="Notification"
		transform="translate(-224.88638,-238.44778)"/>
	<g
		id="g3264"
		transform="matrix(3.393463,0.95788799,-0.90927571,3.5748866,-3790.0946,-2720.2738)"
		inkscape:transform-center-x="-54.297664"
		inkscape:transform-center-y="15.330711"
		style="fill:#b3b3b3;fill-opacity:1"><path
       id="path3266"
       d="m 1267.69,429.467 c -3.598,-3.604 -9.449,-3.604 -13.049,0.002 l -3.301,3.299 c 2.02,-0.057 4.047,0.365 5.896,1.271 l 0.98,-0.979 c 1.618,-1.62 4.26,-1.62 5.881,-10e-4 1.621,1.621 1.621,4.265 0,5.887 l -4.73,4.729 c -1.614,1.621 -4.262,1.62 -5.883,-0.001 -0.984,-0.979 -2.594,-0.979 -3.584,0.001 -0.984,0.989 -0.984,2.604 0,3.585 3.604,3.604 9.451,3.604 13.055,0 l 4.729,-4.729 c 3.597,-3.611 3.597,-9.471 0.01,-13.064 z"
       inkscape:connector-curvature="0"
       style="fill:#b3b3b3;fill-opacity:1" />
		<path
			id="path3268"
			d="m 1250.553,452.48 c -1.619,1.616 -4.258,1.616 -5.879,0 -1.623,-1.621 -1.623,-4.266 0,-5.886 l 4.729,-4.729 c 1.621,-1.621 4.264,-1.621 5.883,0 0.988,0.99 2.604,0.99 3.584,0 0.988,-0.983 0.988,-2.595 0,-3.585 -3.6,-3.603 -9.439,-3.602 -13.053,0.001 l -4.729,4.729 c -3.605,3.603 -3.605,9.45 0,13.054 3.6,3.599 9.439,3.599 13.051,0 l 3.299,-3.304 c -2.02,0.062 -4.047,-0.36 -5.9,-1.271 z"
			inkscape:connector-curvature="0"
			style="fill:#b3b3b3;fill-opacity:1"/></g>
	<g
		transform="translate(-421.91257,526.36992)"
		id="zoom-original"
		inkscape:label="#g6809"><g
       transform="matrix(0.996399,0,0,1,95.08523,-222.9354)"
       id="zoom_1_to_1"><use
         xlink:href="#g5796"
         transform="matrix(1,0,0,0.997925,-0.04089,0.477615)"
         x="0"
         y="0"
         id="use5816"
         width="1250"
         height="1250" /></g></g>
	<g
		transform="matrix(0.99218952,0,0,1,-420.57587,526.93242)"
		id="zoom-half-size"
		inkscape:label="#g6895"><use
       xlink:href="#g5796"
       height="1250"
       width="1250"
       id="use5818"
       y="0"
       x="0"
       transform="matrix(0.996399,0,0,0.997925,95.044487,-202.45778)" /></g>
	<g
		id="g11074"
		transform="matrix(1,0,0,0.99801946,-397.41257,45.583951)"/>
	<g
		id="g11109"
		transform="translate(-397.41257,24.507741)"/>
	<g
		id="g11198"
		transform="translate(-397.41257,24.507741)"/>
	<g
		id="g11329"
		transform="translate(-377.41257,24.507741)"/>
	<g
		id="zoom-fit-selection"
		inkscape:label="#zoom_selection"
		transform="translate(-420.41257,44.007741)"><g
       transform="translate(0,20)"
       id="g11156"
       inkscape:label="#g11150"><g
         transform="translate(0,19.96825)"
         id="g11158"><g
           transform="matrix(1,0,0,0.99801946,0,21.076212)"
           id="g11160" /></g></g></g>
	<g
		id="g11563"
		inkscape:label="#zoom_select"
		transform="translate(-420.41257,84.007741)"><g
       inkscape:label="#zoom_selection"
       id="g11565"><g
         inkscape:label="#g11150"
         id="g11567"
         transform="translate(0,20)"><g
           id="g11569"
           transform="translate(0,19.96825)"><g
             id="g11571"
             transform="matrix(1,0,0,0.99801946,0,21.076212)" /></g></g></g></g>
	<g
		id="g11647"
		transform="translate(-334.41257,124.50774)"/>
	<g
		transform="matrix(-1,0,0,1,-295.41257,124.50774)"
		id="g11659"/>
	<rect
		style="opacity:0.3;fill:url(#linearGradient19282);fill-opacity:1;stroke:none"
		id="rect19405"
		width="0"
		height="1"
		x="-279.41257"
		y="641.86993"
		ry="0"/>
	<g
		id="g39728"
		transform="translate(-397.41257,24.507741)"/>
	<g
		transform="translate(-793.06905,351.52617)"
		id="g39833"/>
	<use
		transform="translate(-164.44047,679.33577)"
		x="0"
		y="0"
		id="use5704"
		width="1250"
		height="1250"
		xlink:href="#rect4442"/>
	<g
		style="fill:none"
		transform="matrix(0.90013776,0,0,0.8929798,-515.45636,552.8947)"
		id="g14408"/>
	<use
		x="0"
		y="0"
		id="use4586"
		transform="matrix(0.692914,0,0,0.70953374,-481.22666,379.49372)"
		width="1250"
		height="1250"
		xlink:href="#g5772"/>
	<use
		x="0"
		y="0"
		id="use4586-2"
		transform="matrix(0.695835,0,0,0.741921,-497.23247,374.07992)"
		width="1250"
		height="1250"
		xlink:href="#g5772"/>
	<use
		transform="matrix(0.695835,0,0,0.741921,-453.23247,371.57992)"
		x="0"
		y="0"
		id="use4589"
		width="1250"
		height="1250"
		xlink:href="#g5772"/>
	<use
		transform="matrix(0.62897517,0,0,1.1624311,-378.47336,269.35805)"
		x="0"
		y="0"
		id="use4592"
		width="1250"
		height="1250"
		xlink:href="#g5772"/>
	<use
		transform="translate(374.59723,398.17158)"
		x="0"
		y="0"
		id="use3738"
		width="1250"
		height="1250"
		xlink:href="#rect10675"/>
	<use
		transform="translate(375.56363,414.89409)"
		x="0"
		y="0"
		id="use4635"
		width="1250"
		height="1250"
		xlink:href="#use5758"/>
	<use
		transform="translate(371.54873,338.81642)"
		x="0"
		y="0"
		id="use9872"
		width="1250"
		height="1250"
		xlink:href="#g6043"/>
	<use
		height="1250"
		width="1250"
		id="use10185"
		y="0"
		x="0"
		transform="translate(416.58053,399.11812)"
		xlink:href="#rect10675"/>
	<use
		transform="translate(404.58053,411.11812)"
		x="0"
		y="0"
		id="use10187"
		width="1250"
		height="1250"
		xlink:href="#rect10675"/>
	<use
		transform="translate(390.59728,332.77422)"
		x="0"
		y="0"
		id="use9872-0"
		width="1250"
		height="1250"
		xlink:href="#g6043"/>
	<use
		height="1250"
		width="1250"
		id="use10185-8"
		y="0"
		x="0"
		transform="translate(435.62908,393.07592)"
		xlink:href="#rect10675"/>
	<use
		transform="translate(423.62908,405.07592)"
		x="0"
		y="0"
		id="use10187-8"
		width="1250"
		height="1250"
		xlink:href="#rect10675"/>
	<use
		style="stroke:url(#linearGradient19282);stroke-opacity:1"
		height="1250"
		width="1250"
		transform="matrix(1.1377421,0,0,1.1399698,183.26439,402.72547)"
		id="use5845-6"
		y="0"
		x="0"
		xlink:href="#use5756-0-3"/>
	<use
		style="stroke:url(#linearGradient19282);stroke-opacity:1"
		height="1250"
		width="1250"
		transform="matrix(1.1377421,0,0,1.1399698,178.2647,409.95394)"
		id="use5845-6-1"
		y="0"
		x="0"
		xlink:href="#use5756-0-3"/>
	<use
		style="stroke:url(#linearGradient19282);stroke-opacity:1"
		height="1250"
		width="1250"
		transform="matrix(1.1377421,0,0,1.1399698,190.85745,413.6042)"
		id="use5845-6-1-9"
		y="0"
		x="0"
		xlink:href="#use5756-0-3"/>
	<g
		id="g31444"
		inkscape:label="#zoom_selection"
		transform="translate(-270.41257,418.00774)"><g
       transform="translate(0,20)"
       id="g31446"
       inkscape:label="#g11150"><g
         transform="translate(0,19.96825)"
         id="g31448"><g
           transform="matrix(1,0,0,0.99801946,0,21.076212)"
           id="g31450" /></g></g></g></svg>