<?xml version="1.0" encoding="UTF-8" standalone="no"?>
<!-- Generator: Adobe Illustrator 14.0.0, SVG Export Plug-In . SVG Version: 6.00 Build 43363)  -->

<svg
	xmlns:dc="http://purl.org/dc/elements/1.1/"
	xmlns:cc="http://creativecommons.org/ns#"
	xmlns:rdf="http://www.w3.org/1999/02/22-rdf-syntax-ns#"
	xmlns="http://www.w3.org/2000/svg"
	xmlns:xlink="http://www.w3.org/1999/xlink"
	xmlns:sodipodi="http://sodipodi.sourceforge.net/DTD/sodipodi-0.dtd"
	xmlns:inkscape="http://www.inkscape.org/namespaces/inkscape"
	version="1.1"
	x="0px"
	y="0px"
	width="128"
	height="128"
	viewBox="0 0 128 128"
	enable-background="new 0 0 780 650"
	xml:space="preserve"
	id="svg2"
	inkscape:version="0.48.5 r10040"
	sodipodi:docname="menu_mount.svg"><metadata
     id="metadata1456"><rdf:RDF><cc:Work
         rdf:about=""><dc:format>image/svg+xml</dc:format><dc:type
	rdf:resource="http://purl.org/dc/dcmitype/StillImage"/></cc:Work></rdf:RDF></metadata>
	<defs
		id="defs1454"><clipPath
       clipPathUnits="userSpaceOnUse"
       id="clipPath9180"><path
         sodipodi:type="arc"
         style="fill:#a9a9a9;fill-opacity:1;fill-rule:evenodd;stroke:none"
         id="path9182"
         sodipodi:cx="43.980995"
         sodipodi:cy="52.105968"
         sodipodi:rx="43.980995"
         sodipodi:ry="52.026299"
         d="m 87.96199,52.105968 a 43.980995,52.026299 0 1 1 -87.96199,0 43.980995,52.026299 0 1 1 87.96199,0 z"
         transform="matrix(1.3993902,0,0,1.1907217,3.486295,1.0575123)" /></clipPath>
		<clipPath
			clipPathUnits="userSpaceOnUse"
			id="clipPath9184"><path
         sodipodi:type="arc"
         style="fill:#a9a9a9;fill-opacity:1;fill-rule:evenodd;stroke:none"
         id="path9186"
         sodipodi:cx="43.980995"
         sodipodi:cy="52.105968"
         sodipodi:rx="43.980995"
         sodipodi:ry="52.026299"
         d="m 87.96199,52.105968 a 43.980995,52.026299 0 1 1 -87.96199,0 43.980995,52.026299 0 1 1 87.96199,0 z"
         transform="matrix(0.1815424,0,0,0.1544719,788.01368,700.63965)" /></clipPath>
		<linearGradient
			gradientTransform="matrix(0.09614231,0,0,0.09614231,1.8468935,1.9430362)"
			gradientUnits="userSpaceOnUse"
			xlink:href="#linearGradient5128"
			id="linearGradient2971"
			y2="20.895"
			x2="84.63858"
			y1="105.105"
			x1="86.132919"/>
		<linearGradient
			gradientTransform="translate(-17.058189,0)"
			gradientUnits="userSpaceOnUse"
			xlink:href="#linearGradient3397"
			id="linearGradient2969"
			y2="16.004715"
			x2="21"
			y1="0"
			x1="21"/>
		<linearGradient
			gradientTransform="translate(-17.058189,0)"
			gradientUnits="userSpaceOnUse"
			xlink:href="#linearGradient3309"
			id="linearGradient2967"
			y2="16.000105"
			x2="25"
			y1="0"
			x1="25"/>
		<linearGradient
			gradientUnits="userSpaceOnUse"
			id="linearGradient3309"
			y2="122.8994"
			x2="63.9995"
			y1="3.1001"
			x1="63.9995"><stop
         offset="0"
         style="stop-color:#f6f6f6;stop-opacity:1"
         id="stop3311" />
			<stop
				offset="1"
				style="stop-color:#cccccc;stop-opacity:1"
				id="stop3313"/></linearGradient>
		<linearGradient
			id="linearGradient3397"><stop
         offset="0"
         style="stop-color:#aaaaaa;stop-opacity:1"
         id="stop3399" />
			<stop
				offset="1"
				style="stop-color:#8c8c8c;stop-opacity:1"
				id="stop3401"/></linearGradient>
		<linearGradient
			id="linearGradient5128"><stop
         offset="0"
         style="stop-color:#e5e5e5;stop-opacity:1"
         id="stop5130" />
			<stop
				offset="1"
				style="stop-color:#ababab;stop-opacity:1"
				id="stop5132"/></linearGradient></defs>
	<sodipodi:namedview
		pagecolor="#ffffff"
		bordercolor="#666666"
		borderopacity="1"
		objecttolerance="10"
		gridtolerance="10"
		guidetolerance="10"
		inkscape:pageopacity="0"
		inkscape:pageshadow="2"
		inkscape:window-width="1236"
		inkscape:window-height="848"
		id="namedview1452"
		showgrid="false"
		inkscape:zoom="1.8644417"
		inkscape:cx="32.355138"
		inkscape:cy="-10.517952"
		inkscape:window-x="498"
		inkscape:window-y="39"
		inkscape:window-maximized="0"
		inkscape:current-layer="svg2"/>
	<g
		id="Help"
		transform="matrix(7.7083383,0,0,7.7083383,-6070.7897,-5399.7099)"
		clip-path="url(#clipPath9184)"><path
       d="m 509.778,597.159 c -12.427,0 -22.5,10.074 -22.5,22.5 0,12.428 10.073,22.5 22.5,22.5 12.427,0 22.5,-10.072 22.5,-22.5 -10e-4,-12.426 -10.073,-22.5 -22.5,-22.5 z m -0.559,36.414 c -1.676,0 -3.054,-1.379 -3.054,-3.055 0,-1.676 1.378,-3.053 3.054,-3.053 1.677,0 3.054,1.377 3.054,3.053 0,1.676 -1.377,3.055 -3.054,3.055 z m 2.904,-11.791 c -0.892,1.305 -0.594,3.129 -3.052,3.129 -1.602,0 -2.385,-1.305 -2.385,-2.496 0,-4.432 6.519,-5.436 6.519,-9.086 0,-2.012 -1.34,-3.203 -3.576,-3.203 -4.767,0 -2.905,4.916 -6.518,4.916 -1.304,0 -2.421,-0.783 -2.421,-2.271 0,-3.65 4.172,-6.891 8.714,-6.891 4.769,0 9.46,2.197 9.46,7.449 10e-4,4.842 -5.55,6.703 -6.741,8.453 z"
       id="path695"
       inkscape:connector-curvature="0"
       style="fill:#333333" /></g>
	<style
		id="style8"
		type="text/css">
      .Border { fill: lightGray; stroke: black; stroke-width: 4; }
      .Label { font-size:24; font-family:Arial; fill:black; }
   </style>
	<style
		id="style8-7"
		type="text/css">
      .Border { fill: lightGray; stroke: black; stroke-width: 4; }
      .Label { font-size:24; font-family:Arial; fill:black; }
   </style>
	<style
		id="style8-3"
		type="text/css">
      .Border { fill: lightGray; stroke: black; stroke-width: 4; }
      .Label { font-size:24; font-family:Arial; fill:black; }
   </style>
	<style
		id="style8-6"
		type="text/css">
      .Border { fill: lightGray; stroke: black; stroke-width: 4; }
      .Label { font-size:24; font-family:Arial; fill:black; }
   </style>
	<style
		type="text/css"
		id="style8-1">
      .Border { fill: lightGray; stroke: black; stroke-width: 4; }
      .Label { font-size:24; font-family:Arial; fill:black; }
   </style>
	<style
		type="text/css"
		id="style8-7-0">
      .Border { fill: lightGray; stroke: black; stroke-width: 4; }
      .Label { font-size:24; font-family:Arial; fill:black; }
   </style>
	<style
		type="text/css"
		id="style8-3-2">
      .Border { fill: lightGray; stroke: black; stroke-width: 4; }
      .Label { font-size:24; font-family:Arial; fill:black; }
   </style>
	<style
		type="text/css"
		id="style8-6-7">
      .Border { fill: lightGray; stroke: black; stroke-width: 4; }
      .Label { font-size:24; font-family:Arial; fill:black; }
   </style>
	<path
		style="fill:#333333;fill-opacity:1;fill-rule:evenodd;stroke:none"
		d=""
		id="path7612"
		inkscape:connector-curvature="0"
		clip-path="url(#clipPath9180)"/>
	<path
		style="fill:#c0c0c0;fill-opacity:1;fill-rule:evenodd;stroke:none"
		d="m 49.543186,115.93027 0,-9.21947 -3.439752,-1.43704 c -1.891864,-0.79036 -5.135222,-2.6545 -7.207457,-4.14253 L 35.128278,98.425719 28.0423,102.61506 c -3.897286,2.30414 -7.413272,4.18934 -7.813292,4.18934 -0.802786,0 -15.1589822,-24.677254 -14.6029216,-25.101351 0.1908014,-0.14552 3.5010145,-2.07873 7.3560296,-4.296019 l 7.009116,-4.031432 0,-8.903199 0,-8.903208 -7.238433,-4.205817 C 8.7716612,49.050176 5.5143664,46.999049 5.5143664,46.805315 c 0,-0.19374 3.226718,-5.930159 7.1704826,-12.747597 l 7.170489,-12.395349 7.659029,4.414232 7.65903,4.414239 4.285171,-2.947681 c 2.356841,-1.62122 5.590047,-3.488172 7.184891,-4.148782 l 2.899727,-1.201107 0,-9.061385 0,-9.0613864 15.134906,0 15.134906,0 0,9.0333604 0,9.033361 3.81393,1.719843 c 2.09766,0.945916 5.353335,2.834981 7.234829,4.197927 l 3.420893,2.478084 7.65371,-4.457864 c 4.20954,-2.45183 7.70409,-4.3814 7.76568,-4.287934 3.71429,5.637137 14.08968,24.733753 13.74293,25.294802 -0.2695,0.436063 -3.5298,2.532085 -7.24513,4.657831 l -6.75513,3.864987 0,8.932006 0,8.93201 7.19635,4.055328 c 3.958,2.230429 7.19734,4.322538 7.19856,4.649137 0.001,0.326592 -3.20335,6.135127 -7.12126,12.907857 l -7.12345,12.314036 -7.56051,-4.46191 -7.560507,-4.461906 -4.130152,2.841606 c -2.271581,1.5629 -5.570281,3.44335 -7.330448,4.17879 l -3.200295,1.33717 0,9.16036 0,9.16037 -15.134906,0 -15.134906,0 0,-9.21948 z m 25.50482,-30.764402 c 5.841083,-2.910731 9.885098,-7.62786 11.670841,-13.613404 1.811029,-6.070298 1.700524,-9.604541 -0.482754,-15.439873 C 82.933238,47.284918 76.044525,42.431358 66.064764,41.900541 59.901895,41.572739 58.642555,41.80797 54.135818,44.128732 32.746876,55.143063 40.614471,87.541804 64.678092,87.541804 c 4.188888,0 6.804758,-0.599341 10.369914,-2.375936 z"
		id="path3103"
		inkscape:connector-curvature="0"/></svg>