<?xml version="1.0" encoding="UTF-8" standalone="no"?>
<!-- Generator: Adobe Illustrator 14.0.0, SVG Export Plug-In . SVG Version: 6.00 Build 43363)  -->

<svg
   xmlns:dc="http://purl.org/dc/elements/1.1/"
   xmlns:cc="http://creativecommons.org/ns#"
   xmlns:rdf="http://www.w3.org/1999/02/22-rdf-syntax-ns#"
   xmlns:svg="http://www.w3.org/2000/svg"
   xmlns="http://www.w3.org/2000/svg"
   xmlns:sodipodi="http://sodipodi.sourceforge.net/DTD/sodipodi-0.dtd"
   xmlns:inkscape="http://www.inkscape.org/namespaces/inkscape"
   version="1.1"
   x="0px"
   y="0px"
   width="128"
   height="128"
   viewBox="0 0 128 128"
   enable-background="new 0 0 780 650"
   xml:space="preserve"
   id="svg2"
   inkscape:version="0.48.5 r10040"
   sodipodi:docname="menu_link.svg"><metadata
     id="metadata1456"><rdf:RDF><cc:Work
         rdf:about=""><dc:format>image/svg+xml</dc:format><dc:type
           rdf:resource="http://purl.org/dc/dcmitype/StillImage" /></cc:Work></rdf:RDF></metadata><defs
     id="defs1454"><clipPath
       clipPathUnits="userSpaceOnUse"
       id="clipPath9176"><path
         sodipodi:type="arc"
         style="fill:#a9a9a9;fill-opacity:1;fill-rule:evenodd;stroke:none"
         id="path9178"
         sodipodi:cx="43.980995"
         sodipodi:cy="52.105968"
         sodipodi:rx="43.980995"
         sodipodi:ry="52.026299"
         d="m 87.96199,52.105968 a 43.980995,52.026299 0 1 1 -87.96199,0 43.980995,52.026299 0 1 1 87.96199,0 z"
         transform="matrix(1.3993902,0,0,1.1907217,3.2181186,2.3983967)" /></clipPath><clipPath
       clipPathUnits="userSpaceOnUse"
       id="clipPath9180"><path
         sodipodi:type="arc"
         style="fill:#a9a9a9;fill-opacity:1;fill-rule:evenodd;stroke:none"
         id="path9182"
         sodipodi:cx="43.980995"
         sodipodi:cy="52.105968"
         sodipodi:rx="43.980995"
         sodipodi:ry="52.026299"
         d="m 87.96199,52.105968 a 43.980995,52.026299 0 1 1 -87.96199,0 43.980995,52.026299 0 1 1 87.96199,0 z"
         transform="matrix(1.3993902,0,0,1.1907217,3.486295,1.0575123)" /></clipPath><clipPath
       clipPathUnits="userSpaceOnUse"
       id="clipPath9184"><path
         sodipodi:type="arc"
         style="fill:#a9a9a9;fill-opacity:1;fill-rule:evenodd;stroke:none"
         id="path9186"
         sodipodi:cx="43.980995"
         sodipodi:cy="52.105968"
         sodipodi:rx="43.980995"
         sodipodi:ry="52.026299"
         d="m 87.96199,52.105968 a 43.980995,52.026299 0 1 1 -87.96199,0 43.980995,52.026299 0 1 1 87.96199,0 z"
         transform="matrix(0.1815424,0,0,0.1544719,788.01368,700.63965)" /></clipPath></defs><sodipodi:namedview
     pagecolor="#ffffff"
     bordercolor="#666666"
     borderopacity="1"
     objecttolerance="10"
     gridtolerance="10"
     guidetolerance="10"
     inkscape:pageopacity="0"
     inkscape:pageshadow="2"
     inkscape:window-width="1236"
     inkscape:window-height="848"
     id="namedview1452"
     showgrid="false"
     inkscape:zoom="3.7288834"
     inkscape:cx="53.032407"
     inkscape:cy="64.672192"
     inkscape:window-x="498"
     inkscape:window-y="39"
     inkscape:window-maximized="0"
     inkscape:current-layer="svg2" /><g
     id="Help"
     transform="matrix(7.7083383,0,0,7.7083383,-6070.7897,-5399.7099)"
     clip-path="url(#clipPath9184)"><path
       d="m 509.778,597.159 c -12.427,0 -22.5,10.074 -22.5,22.5 0,12.428 10.073,22.5 22.5,22.5 12.427,0 22.5,-10.072 22.5,-22.5 -10e-4,-12.426 -10.073,-22.5 -22.5,-22.5 z m -0.559,36.414 c -1.676,0 -3.054,-1.379 -3.054,-3.055 0,-1.676 1.378,-3.053 3.054,-3.053 1.677,0 3.054,1.377 3.054,3.053 0,1.676 -1.377,3.055 -3.054,3.055 z m 2.904,-11.791 c -0.892,1.305 -0.594,3.129 -3.052,3.129 -1.602,0 -2.385,-1.305 -2.385,-2.496 0,-4.432 6.519,-5.436 6.519,-9.086 0,-2.012 -1.34,-3.203 -3.576,-3.203 -4.767,0 -2.905,4.916 -6.518,4.916 -1.304,0 -2.421,-0.783 -2.421,-2.271 0,-3.65 4.172,-6.891 8.714,-6.891 4.769,0 9.46,2.197 9.46,7.449 10e-4,4.842 -5.55,6.703 -6.741,8.453 z"
       id="path695"
       inkscape:connector-curvature="0"
       style="fill:#333333" /></g><style
     id="style8"
     type="text/css">
      .Border { fill: lightGray; stroke: black; stroke-width: 4; }
      .Label { font-size:24; font-family:Arial; fill:black; }
   </style><style
     id="style8-7"
     type="text/css">
      .Border { fill: lightGray; stroke: black; stroke-width: 4; }
      .Label { font-size:24; font-family:Arial; fill:black; }
   </style><style
     id="style8-3"
     type="text/css">
      .Border { fill: lightGray; stroke: black; stroke-width: 4; }
      .Label { font-size:24; font-family:Arial; fill:black; }
   </style><style
     id="style8-6"
     type="text/css">
      .Border { fill: lightGray; stroke: black; stroke-width: 4; }
      .Label { font-size:24; font-family:Arial; fill:black; }
   </style><style
     type="text/css"
     id="style8-1">
      .Border { fill: lightGray; stroke: black; stroke-width: 4; }
      .Label { font-size:24; font-family:Arial; fill:black; }
   </style><style
     type="text/css"
     id="style8-7-0">
      .Border { fill: lightGray; stroke: black; stroke-width: 4; }
      .Label { font-size:24; font-family:Arial; fill:black; }
   </style><style
     type="text/css"
     id="style8-3-2">
      .Border { fill: lightGray; stroke: black; stroke-width: 4; }
      .Label { font-size:24; font-family:Arial; fill:black; }
   </style><style
     type="text/css"
     id="style8-6-7">
      .Border { fill: lightGray; stroke: black; stroke-width: 4; }
      .Label { font-size:24; font-family:Arial; fill:black; }
   </style><path
     style="fill:#333333;fill-opacity:1;fill-rule:evenodd;stroke:none"
     d=""
     id="path7612"
     inkscape:connector-curvature="0"
     clip-path="url(#clipPath9180)" /><path
     style="fill:#a9a9a9;fill-opacity:1;fill-rule:evenodd;stroke:none"
     d=""
     id="path3075"
     inkscape:connector-curvature="0" /><path
     style="fill:#a9a9a9;fill-opacity:1;fill-rule:evenodd;stroke:none"
     d=""
     id="path3079"
     inkscape:connector-curvature="0" /><g
     id="g536"
     transform="matrix(5.0583123,0,0,-5.0583123,118.30415,79.17169)"
     style="fill:#b3b3b3"><path
       style="fill:#b3b3b3;fill-opacity:1;fill-rule:nonzero;stroke:none"
       id="path538"
       inkscape:connector-curvature="0"
       d="m 0,0 c -0.685,-2.495 -2.21,-4.642 -4.26,-6.11 l -1.506,5.048 -0.791,0.226 -1.754,-0.006 -1.061,0.626 0.06,1.242 1.424,2.8 -0.069,0.586 0.072,0.478 0.93,0.37 -0.059,0.263 -0.173,0.29 -0.016,0.205 2.15,1.585 0,0.303 -0.765,0.589 -0.077,0.287 1.628,2.209 0.621,0.267 0.34,-0.022 c 0.406,-0.364 0.791,-0.749 1.139,-1.167 l -0.148,-0.045 0.404,-0.414 0.07,0.03 C -0.894,8.381 -0.197,6.921 0.148,5.326 L 0.127,5.244 0.187,5.123 C 0.32,4.447 0.398,3.747 0.405,3.03 0.412,2.021 0.273,1.046 0.029,0.114 L -0.057,0.062 0,0 z m -10.979,9.04 -0.255,0.729 0.096,0.691 0.401,0.94 -0.234,1.561 -0.807,0.105 -0.115,0.209 0.058,0.284 0.296,0.425 0.145,0.079 c 0.19,0.011 0.377,0.031 0.569,0.033 1.457,0.01 2.846,-0.267 4.124,-0.765 l -0.737,-1.974 -3.141,-2.717 -0.4,0.4 z m -4.145,0.311 -0.146,-0.092 -0.463,0.002 -0.069,0.072 0.38,0.477 0.102,-0.025 0.102,-0.149 0.094,-0.285 z m 3.761,-14.426 -1.219,-0.9 -1.371,-1.755 c -0.793,0.239 -1.544,0.569 -2.251,0.969 l -0.039,1.405 -1.31,2.534 0.021,0.494 0.376,0.901 -0.009,0.607 -0.413,0.457 -3.022,1.333 -1.004,1.705 -0.275,0.101 -0.005,-0.017 c -0.001,0.037 -0.006,0.072 -0.006,0.107 -0.023,2.96 1.12,5.652 2.989,7.662 l 0.343,-0.191 1.9,0.391 0.224,0.13 0.051,-0.103 -0.135,-0.254 -0.025,-0.111 1.319,1.839 0.096,0.036 0.086,10e-4 0.077,-0.032 0.068,-0.067 -0.831,-1.547 0.319,-0.3 0.45,0.308 0.1,1.388 0.567,0.179 -0.271,-0.445 0.842,0.477 0.293,-0.068 0.03,-0.14 -0.537,-0.096 1.013,-0.862 0.393,-0.674 -0.51,-0.56 0.082,-0.095 -0.371,-0.586 -0.089,0.005 -0.19,-0.101 -0.873,0.549 0.876,0.716 -0.13,0.289 -0.835,0.528 -0.268,-0.756 -1.81,-1.404 -0.593,-0.889 0.503,-0.573 0.815,-0.375 0.343,-0.308 0.712,1.822 0.275,0.265 1.221,-0.589 0.14,0.019 1.003,-2.424 -0.301,-0.113 -0.373,0.018 -0.121,0.162 0.168,0.118 0.094,0.124 0.021,0.128 -0.055,0.137 -1.53,-0.434 0.602,-0.445 0.338,-0.043 -2.327,-1.297 -1.055,-1.534 0.008,-0.806 -0.389,0.091 -0.185,0.529 -1.258,0.234 -0.504,-0.28 -0.425,-0.576 -0.083,-0.312 0.047,-0.38 0.243,-0.26 0.674,0.325 0.216,-0.026 0.822,-1.386 2.706,-0.092 1.153,-0.438 0.935,-1.225 1.598,-0.474 0.557,-0.413 -0.711,-2.327 z m -10.272,6.924 -0.224,0.502 c -0.002,0.037 -0.006,0.074 -0.006,0.111 l 0.239,-0.41 -0.009,-0.203 z m 3.092,9.011 0.326,0.227 -0.059,0.06 c 0.341,0.315 0.701,0.614 1.08,0.884 l 0.054,-0.02 0.54,0.105 -0.016,-0.603 -0.623,-0.671 -0.799,-0.368 -0.543,0.31 0.04,0.076 z m 2.175,0.905 0.416,0.459 0.162,-0.083 -0.061,-0.298 -0.216,-0.256 -0.303,0.045 0.002,0.133 z m 1.192,1.413 0.048,-0.071 -0.135,-0.164 -0.245,-0.105 -0.226,-0.014 -0.044,0.059 c 0.199,0.101 0.397,0.207 0.602,0.295 m 0.477,0.104 0.232,-0.046 0.805,-0.457 0.193,-0.029 -0.322,-0.31 -0.521,0.071 -0.407,0.323 0.02,0.448 z m 1.218,0.23 0.221,0.291 c 0.369,0.085 0.744,0.152 1.128,0.2 l -1.2,-0.784 -0.619,-0.025 0.47,0.318 z m 6.762,-3.88 -0.316,-0.246 -0.493,0.047 -0.04,0.1 0.015,0.455 0.366,-0.081 0.382,0.086 0.18,-0.072 -0.094,-0.289 z m 0.095,-2.72 -0.028,-0.35 -0.506,-0.117 -0.214,0.539 -0.004,1.052 0.752,-1.124 z m -4.118,8.491 c -6.825,0 -12.36,-5.533 -12.36,-12.359 0,-6.826 5.535,-12.358 12.36,-12.358 6.825,0 12.357,5.532 12.357,12.358 0,6.826 -5.532,12.359 -12.357,12.359" /></g></svg>