<?xml version="1.0" encoding="UTF-8" standalone="no"?>
<!-- Generator: Adobe Illustrator 14.0.0, SVG Export Plug-In . SVG Version: 6.00 Build 43363)  -->

<svg
	xmlns:dc="http://purl.org/dc/elements/1.1/"
	xmlns:cc="http://creativecommons.org/ns#"
	xmlns:rdf="http://www.w3.org/1999/02/22-rdf-syntax-ns#"
	xmlns="http://www.w3.org/2000/svg"
	xmlns:sodipodi="http://sodipodi.sourceforge.net/DTD/sodipodi-0.dtd"
	xmlns:inkscape="http://www.inkscape.org/namespaces/inkscape"
	version="1.1"
	x="0px"
	y="0px"
	width="128"
	height="128"
	viewBox="0 0 128 128"
	enable-background="new 0 0 780 650"
	xml:space="preserve"
	id="svg2"
	inkscape:version="0.48.5 r10040"
	sodipodi:docname="menu_info.svg"><metadata
     id="metadata1456"><rdf:RDF><cc:Work
         rdf:about=""><dc:format>image/svg+xml</dc:format><dc:type
	rdf:resource="http://purl.org/dc/dcmitype/StillImage"/></cc:Work></rdf:RDF></metadata>
	<defs
		id="defs1454"><clipPath
       clipPathUnits="userSpaceOnUse"
       id="clipPath9180"><path
         sodipodi:type="arc"
         style="fill:#a9a9a9;fill-opacity:1;fill-rule:evenodd;stroke:none"
         id="path9182"
         sodipodi:cx="43.980995"
         sodipodi:cy="52.105968"
         sodipodi:rx="43.980995"
         sodipodi:ry="52.026299"
         d="m 87.96199,52.105968 a 43.980995,52.026299 0 1 1 -87.96199,0 43.980995,52.026299 0 1 1 87.96199,0 z"
         transform="matrix(1.3993902,0,0,1.1907217,3.486295,1.0575123)" /></clipPath>
		<clipPath
			clipPathUnits="userSpaceOnUse"
			id="clipPath9184"><path
         sodipodi:type="arc"
         style="fill:#a9a9a9;fill-opacity:1;fill-rule:evenodd;stroke:none"
         id="path9186"
         sodipodi:cx="43.980995"
         sodipodi:cy="52.105968"
         sodipodi:rx="43.980995"
         sodipodi:ry="52.026299"
         d="m 87.96199,52.105968 a 43.980995,52.026299 0 1 1 -87.96199,0 43.980995,52.026299 0 1 1 87.96199,0 z"
         transform="matrix(0.1815424,0,0,0.1544719,788.01368,700.63965)" /></clipPath></defs>
	<sodipodi:namedview
		pagecolor="#ffffff"
		bordercolor="#666666"
		borderopacity="1"
		objecttolerance="10"
		gridtolerance="10"
		guidetolerance="10"
		inkscape:pageopacity="0"
		inkscape:pageshadow="2"
		inkscape:window-width="1236"
		inkscape:window-height="848"
		id="namedview1452"
		showgrid="false"
		inkscape:zoom="2.6367187"
		inkscape:cx="32.355138"
		inkscape:cy="57.716227"
		inkscape:window-x="498"
		inkscape:window-y="39"
		inkscape:window-maximized="0"
		inkscape:current-layer="svg2"/>
	<g
		id="Help"
		transform="matrix(7.7083383,0,0,7.7083383,-6070.7897,-5399.7099)"
		clip-path="url(#clipPath9184)"><path
       d="m 509.778,597.159 c -12.427,0 -22.5,10.074 -22.5,22.5 0,12.428 10.073,22.5 22.5,22.5 12.427,0 22.5,-10.072 22.5,-22.5 -10e-4,-12.426 -10.073,-22.5 -22.5,-22.5 z m -0.559,36.414 c -1.676,0 -3.054,-1.379 -3.054,-3.055 0,-1.676 1.378,-3.053 3.054,-3.053 1.677,0 3.054,1.377 3.054,3.053 0,1.676 -1.377,3.055 -3.054,3.055 z m 2.904,-11.791 c -0.892,1.305 -0.594,3.129 -3.052,3.129 -1.602,0 -2.385,-1.305 -2.385,-2.496 0,-4.432 6.519,-5.436 6.519,-9.086 0,-2.012 -1.34,-3.203 -3.576,-3.203 -4.767,0 -2.905,4.916 -6.518,4.916 -1.304,0 -2.421,-0.783 -2.421,-2.271 0,-3.65 4.172,-6.891 8.714,-6.891 4.769,0 9.46,2.197 9.46,7.449 10e-4,4.842 -5.55,6.703 -6.741,8.453 z"
       id="path695"
       inkscape:connector-curvature="0"
       style="fill:#333333" /></g>
	<style
		id="style8"
		type="text/css">
      .Border { fill: lightGray; stroke: black; stroke-width: 4; }
      .Label { font-size:24; font-family:Arial; fill:black; }
   </style>
	<style
		id="style8-7"
		type="text/css">
      .Border { fill: lightGray; stroke: black; stroke-width: 4; }
      .Label { font-size:24; font-family:Arial; fill:black; }
   </style>
	<style
		id="style8-3"
		type="text/css">
      .Border { fill: lightGray; stroke: black; stroke-width: 4; }
      .Label { font-size:24; font-family:Arial; fill:black; }
   </style>
	<style
		id="style8-6"
		type="text/css">
      .Border { fill: lightGray; stroke: black; stroke-width: 4; }
      .Label { font-size:24; font-family:Arial; fill:black; }
   </style>
	<style
		type="text/css"
		id="style8-1">
      .Border { fill: lightGray; stroke: black; stroke-width: 4; }
      .Label { font-size:24; font-family:Arial; fill:black; }
   </style>
	<style
		type="text/css"
		id="style8-7-0">
      .Border { fill: lightGray; stroke: black; stroke-width: 4; }
      .Label { font-size:24; font-family:Arial; fill:black; }
   </style>
	<style
		type="text/css"
		id="style8-3-2">
      .Border { fill: lightGray; stroke: black; stroke-width: 4; }
      .Label { font-size:24; font-family:Arial; fill:black; }
   </style>
	<style
		type="text/css"
		id="style8-6-7">
      .Border { fill: lightGray; stroke: black; stroke-width: 4; }
      .Label { font-size:24; font-family:Arial; fill:black; }
   </style>
	<path
		style="fill:#333333;fill-opacity:1;fill-rule:evenodd;stroke:none"
		d=""
		id="path7612"
		inkscape:connector-curvature="0"
		clip-path="url(#clipPath9180)"/>
	<g
		id="Info"
		transform="matrix(2.6301937,0,0,2.6404723,-1277.2851,-1412.5121)"
		style="fill:#c0c0c0;fill-opacity:1"><path
       d="m 509.778,536.79 c -12.427,0 -22.5,10.074 -22.5,22.5 0,12.428 10.073,22.5 22.5,22.5 12.426,0 22.5,-10.072 22.5,-22.5 0,-12.426 -10.074,-22.5 -22.5,-22.5 z m 3.749,35.66 c 0,0.516 -0.422,0.938 -0.937,0.938 h -5.625 c -0.516,0 -0.938,-0.422 -0.938,-0.938 v -15 c 0,-0.514 0.422,-0.938 0.938,-0.938 h 5.625 c 0.515,0 0.937,0.424 0.937,0.938 v 15 z m 0,-19.758 c 0,0.516 -0.422,0.938 -0.937,0.938 h -5.625 c -0.516,0 -0.938,-0.422 -0.938,-0.938 v -6.563 c 0,-0.516 0.422,-0.938 0.938,-0.938 h 5.625 c 0.515,0 0.937,0.422 0.937,0.938 v 6.563 z"
       id="path698"
       inkscape:connector-curvature="0"
       style="fill:#c0c0c0;fill-opacity:1" /></g></svg>