<?xml version="1.0" encoding="UTF-8" standalone="no"?>
<!-- Generator: Adobe Illustrator 14.0.0, SVG Export Plug-In . SVG Version: 6.00 Build 43363)  -->

<svg
   xmlns:dc="http://purl.org/dc/elements/1.1/"
   xmlns:cc="http://creativecommons.org/ns#"
   xmlns:rdf="http://www.w3.org/1999/02/22-rdf-syntax-ns#"
   xmlns:svg="http://www.w3.org/2000/svg"
   xmlns="http://www.w3.org/2000/svg"
   xmlns:sodipodi="http://sodipodi.sourceforge.net/DTD/sodipodi-0.dtd"
   xmlns:inkscape="http://www.inkscape.org/namespaces/inkscape"
   version="1.1"
   x="0px"
   y="0px"
   width="128"
   height="128"
   viewBox="0 0 128 128"
   enable-background="new 0 0 780 650"
   xml:space="preserve"
   id="svg2"
   inkscape:version="0.48.5 r10040"
   sodipodi:docname="status_link.svg"><metadata
     id="metadata1456"><rdf:RDF><cc:Work
         rdf:about=""><dc:format>image/svg+xml</dc:format><dc:type
           rdf:resource="http://purl.org/dc/dcmitype/StillImage" /></cc:Work></rdf:RDF></metadata><defs
     id="defs1454"><clipPath
       clipPathUnits="userSpaceOnUse"
       id="clipPath9176"><path
         sodipodi:type="arc"
         style="fill:#a9a9a9;fill-opacity:1;fill-rule:evenodd;stroke:none"
         id="path9178"
         sodipodi:cx="43.980995"
         sodipodi:cy="52.105968"
         sodipodi:rx="43.980995"
         sodipodi:ry="52.026299"
         d="m 87.96199,52.105968 a 43.980995,52.026299 0 1 1 -87.96199,0 43.980995,52.026299 0 1 1 87.96199,0 z"
         transform="matrix(1.3993902,0,0,1.1907217,3.2181186,2.3983967)" /></clipPath><clipPath
       clipPathUnits="userSpaceOnUse"
       id="clipPath9180"><path
         sodipodi:type="arc"
         style="fill:#a9a9a9;fill-opacity:1;fill-rule:evenodd;stroke:none"
         id="path9182"
         sodipodi:cx="43.980995"
         sodipodi:cy="52.105968"
         sodipodi:rx="43.980995"
         sodipodi:ry="52.026299"
         d="m 87.96199,52.105968 a 43.980995,52.026299 0 1 1 -87.96199,0 43.980995,52.026299 0 1 1 87.96199,0 z"
         transform="matrix(1.3993902,0,0,1.1907217,3.486295,1.0575123)" /></clipPath><clipPath
       clipPathUnits="userSpaceOnUse"
       id="clipPath9184"><path
         sodipodi:type="arc"
         style="fill:#a9a9a9;fill-opacity:1;fill-rule:evenodd;stroke:none"
         id="path9186"
         sodipodi:cx="43.980995"
         sodipodi:cy="52.105968"
         sodipodi:rx="43.980995"
         sodipodi:ry="52.026299"
         d="m 87.96199,52.105968 a 43.980995,52.026299 0 1 1 -87.96199,0 43.980995,52.026299 0 1 1 87.96199,0 z"
         transform="matrix(0.1815424,0,0,0.1544719,788.01368,700.63965)" /></clipPath><clipPath
       clipPathUnits="userSpaceOnUse"
       id="clipPath3089"><path
         sodipodi:type="arc"
         style="fill:#ff0000;fill-opacity:1;fill-rule:evenodd;stroke:none"
         id="path3091"
         sodipodi:cx="64.663704"
         sodipodi:cy="63.905186"
         sodipodi:rx="61.629631"
         sodipodi:ry="62.957039"
         d="m 126.29333,63.905186 a 61.629631,62.957039 0 1 1 -123.2592571,0 61.629631,62.957039 0 1 1 123.2592571,0 z" /></clipPath><clipPath
       clipPathUnits="userSpaceOnUse"
       id="clipPath3093"><path
         sodipodi:type="arc"
         style="fill:#ff0000;fill-opacity:1;fill-rule:evenodd;stroke:none"
         id="path3095"
         sodipodi:cx="64.663704"
         sodipodi:cy="63.905186"
         sodipodi:rx="61.629631"
         sodipodi:ry="62.957039"
         d="m 126.29333,63.905186 a 61.629631,62.957039 0 1 1 -123.2592571,0 61.629631,62.957039 0 1 1 123.2592571,0 z" /></clipPath><clipPath
       clipPathUnits="userSpaceOnUse"
       id="clipPath3097"><path
         sodipodi:type="arc"
         style="fill:#ff0000;fill-opacity:1;fill-rule:evenodd;stroke:none"
         id="path3099"
         sodipodi:cx="64.663704"
         sodipodi:cy="63.905186"
         sodipodi:rx="61.629631"
         sodipodi:ry="62.957039"
         d="m 126.29333,63.905186 a 61.629631,62.957039 0 1 1 -123.2592571,0 61.629631,62.957039 0 1 1 123.2592571,0 z"
         transform="matrix(0.12972965,0,0,0.12972965,787.5614,700.50245)" /></clipPath></defs><sodipodi:namedview
     pagecolor="#ffffff"
     bordercolor="#666666"
     borderopacity="1"
     objecttolerance="10"
     gridtolerance="10"
     guidetolerance="10"
     inkscape:pageopacity="0"
     inkscape:pageshadow="2"
     inkscape:window-width="1236"
     inkscape:window-height="848"
     id="namedview1452"
     showgrid="false"
     inkscape:zoom="5.2734375"
     inkscape:cx="64"
     inkscape:cy="86.755556"
     inkscape:window-x="498"
     inkscape:window-y="39"
     inkscape:window-maximized="0"
     inkscape:current-layer="svg2" /><g
     id="Help"
     transform="matrix(7.7083383,0,0,7.7083383,-6070.7897,-5399.7099)"
     clip-path="url(#clipPath3097)"><path
       d="m 509.778,597.159 c -12.427,0 -22.5,10.074 -22.5,22.5 0,12.428 10.073,22.5 22.5,22.5 12.427,0 22.5,-10.072 22.5,-22.5 -10e-4,-12.426 -10.073,-22.5 -22.5,-22.5 z m -0.559,36.414 c -1.676,0 -3.054,-1.379 -3.054,-3.055 0,-1.676 1.378,-3.053 3.054,-3.053 1.677,0 3.054,1.377 3.054,3.053 0,1.676 -1.377,3.055 -3.054,3.055 z m 2.904,-11.791 c -0.892,1.305 -0.594,3.129 -3.052,3.129 -1.602,0 -2.385,-1.305 -2.385,-2.496 0,-4.432 6.519,-5.436 6.519,-9.086 0,-2.012 -1.34,-3.203 -3.576,-3.203 -4.767,0 -2.905,4.916 -6.518,4.916 -1.304,0 -2.421,-0.783 -2.421,-2.271 0,-3.65 4.172,-6.891 8.714,-6.891 4.769,0 9.46,2.197 9.46,7.449 10e-4,4.842 -5.55,6.703 -6.741,8.453 z"
       id="path695"
       inkscape:connector-curvature="0"
       style="fill:#333333" /></g><style
     id="style8"
     type="text/css">
      .Border { fill: lightGray; stroke: black; stroke-width: 4; }
      .Label { font-size:24; font-family:Arial; fill:black; }
   </style><style
     id="style8-7"
     type="text/css">
      .Border { fill: lightGray; stroke: black; stroke-width: 4; }
      .Label { font-size:24; font-family:Arial; fill:black; }
   </style><style
     id="style8-3"
     type="text/css">
      .Border { fill: lightGray; stroke: black; stroke-width: 4; }
      .Label { font-size:24; font-family:Arial; fill:black; }
   </style><style
     id="style8-6"
     type="text/css">
      .Border { fill: lightGray; stroke: black; stroke-width: 4; }
      .Label { font-size:24; font-family:Arial; fill:black; }
   </style><style
     type="text/css"
     id="style8-1">
      .Border { fill: lightGray; stroke: black; stroke-width: 4; }
      .Label { font-size:24; font-family:Arial; fill:black; }
   </style><style
     type="text/css"
     id="style8-7-0">
      .Border { fill: lightGray; stroke: black; stroke-width: 4; }
      .Label { font-size:24; font-family:Arial; fill:black; }
   </style><style
     type="text/css"
     id="style8-3-2">
      .Border { fill: lightGray; stroke: black; stroke-width: 4; }
      .Label { font-size:24; font-family:Arial; fill:black; }
   </style><style
     type="text/css"
     id="style8-6-7">
      .Border { fill: lightGray; stroke: black; stroke-width: 4; }
      .Label { font-size:24; font-family:Arial; fill:black; }
   </style><path
     style="fill:#333333;fill-opacity:1;fill-rule:evenodd;stroke:none"
     d=""
     id="path7612"
     inkscape:connector-curvature="0"
     clip-path="url(#clipPath3093)" /><g
     id="g3055"
     clip-path="url(#clipPath3089)"
     transform="matrix(0.99098421,0,0,1,-2.1841732e-6,0)"><g
       transform="matrix(0.21023282,0,0,0.21220108,427.53572,-233.77543)"
       id="g3035"><circle
         cx="198.70599"
         cy="184.595"
         r="6.4510002"
         id="circle1176"
         d="m 205.15699,184.595 c 0,3.56279 -2.88821,6.451 -6.451,6.451 -3.56279,0 -6.451,-2.88821 -6.451,-6.451 0,-3.56279 2.88821,-6.451 6.451,-6.451 3.56279,0 6.451,2.88821 6.451,6.451 z"
         sodipodi:cx="198.70599"
         sodipodi:cy="184.595"
         sodipodi:rx="6.4510002"
         sodipodi:ry="6.4510002"
         style="fill:#c0c0c0"
         transform="matrix(45.270799,0,0,45.263762,-10720.973,-6955.2779)" /></g><g
       style="fill:#ffffff"
       transform="matrix(0.23620463,0,0,0.24578973,489.49436,-128.98742)"
       id="g9558"><path
         d="m -2048.9473,704.42022 c -2.5618,0.44276 -1.9562,5.23154 1.1769,4.37888 3.116,-0.86921 1.3849,-4.80532 -1.1769,-4.37888 z"
         id="path1136"
         inkscape:connector-curvature="0"
         style="fill:#ffffff" /><path
         d="m -1661.9535,802.96848 c -3.6178,-0.98391 -5.1756,4.7398 -6.8373,6.46166 -3.9293,4.11657 -6.8894,3.64093 -10.9225,6.429 -5.2103,3.62439 2.908,9.95479 -1.8176,14.53045 -1.3846,1.29563 0.5712,10.90605 1.2811,12.72653 4.864,12.8741 15.0768,-11.82446 15.4574,-12.46423 2.2676,-3.98508 11.4591,-25.45282 2.8389,-27.68341"
         id="path1138"
         inkscape:connector-curvature="0"
         style="fill:#ffffff" /><path
         d="m -1554.8754,739.38529 c -0.9174,-1.09885 -1.5234,-6.52718 -4.2584,-5.37933 -2.631,1.08252 -2.302,7.6097 -1.4885,9.51223 1.9215,4.41153 8.049,-1.44323 5.7469,-4.1329"
         id="path1140"
         inkscape:connector-curvature="0"
         style="fill:#ffffff" /><path
         d="m -1795.1173,638.44253 c 1.8174,-2.39449 -2.3369,-6.36327 -4.6738,-3.49335 -2.7003,3.36209 1.8697,7.28167 4.6738,3.49335"
         id="path1142"
         inkscape:connector-curvature="0"
         style="fill:#ffffff" /><path
         d="m -1816.3564,638.44253 c 0.5713,-1.08252 -0.8481,-3.23084 -2.8389,-0.27885 -0.6403,1.01677 2.2677,1.34483 2.8389,0.27885 z"
         id="path1144"
         inkscape:connector-curvature="0"
         style="fill:#ffffff" /><path
         d="m -1778.6904,648.11846 c 7.2355,1.67289 0.1733,-9.31524 -6.8027,-5.37913 -0.6925,0.42645 5.868,5.14969 6.8027,5.37913"
         id="path1146"
         inkscape:connector-curvature="0"
         style="fill:#ffffff" /><path
         d="m -1858.2633,602.19814 c 10.3513,1.27932 16.4616,-15.36678 5.1064,-13.6941 -5.4179,0.86919 -12.3419,12.89065 -5.1064,13.6941"
         id="path1148"
         inkscape:connector-curvature="0"
         style="fill:#ffffff" /><path
         d="m -1844.4153,590.65254 c 8.1873,3.09957 6.8372,1.65634 1.2461,6.92075 -1.956,1.88621 2.4752,7.36373 3.0465,7.59338 0.9522,0.34437 7.1663,-1.59083 9.0184,-1.21359 3.8947,0.77083 6.7335,1.14784 9.3647,-2.06645 2.7003,-3.28002 -8.8281,-13.03823 -11.9092,-14.97342 -1.5579,-1.00024 -0.5711,-12.64445 -9.0876,-8.74121 -6.1277,2.82092 -14.0382,7.77362 -1.6789,12.48054"
         id="path1150"
         inkscape:connector-curvature="0"
         style="fill:#ffffff" /><path
         sodipodi:nodetypes="ccccccccccccccccccccccccccscccccccscccccccccccc"
         d="m -1928.2718,803.1459 c -4.6044,-1.85333 -9.0182,-5.28093 -13.6573,-6.72418 -6.1449,-1.85312 -10.6107,0.0648 -16.6691,-4.54278 -1.3502,-1.03313 -7.2009,-3.13243 -8.9667,-1.72208 -1.454,1.26276 -2.4753,2.75519 -3.081,4.51014 -0.8483,3.08324 -4.4314,-0.13189 -5.0026,0.63954 0.4326,-0.60689 11.0957,-10.41408 1.7658,-7.70809 -0.069,0.0209 -11.2169,5.9205 -8.8974,1.83679 1.8003,-3.19796 12.0995,-1.54162 9.1569,-7.47843 -1.2117,-2.47635 -8.6895,-9.31525 -10.9916,-10.80767 -6.6645,-4.31315 -11.1648,-1.34484 -17.6731,-6.75683 -2.8736,-2.37795 -7.9454,-1.8368 -10.0052,-3.77198 0.1028,0.0984 3.4099,-8.5281 2.4406,-8.20007 -5.4353,1.73841 -0.8483,4.70672 -6.8028,1.34485 -3.9294,-2.21404 -7.4429,0.19678 -8.7932,3.49313 -3.2543,-6.60924 -8.4819,0.14864 -11.6667,-5.3136 -3.8602,-6.59292 -3.5494,4.69715 -3.3417,4.73002 -4.362,-1.04966 -3.7554,-7.56727 -5.6768,-8.01005 -1.956,-0.47563 -4.1543,0.60689 -6.3873,2.03359 l -17.0304,81.88307 c 15.2152,7.39637 25.218,23.68454 26.395,38.32992 0.2422,2.95199 -1.0905,9.31524 -2.4406,11.25043 -2.7351,3.93611 -0.5021,7.18327 -2.5966,12.23456 -3.2716,7.83914 -4.085,12.67733 -4.3274,18.64682 l 0,43.75568 c 0.1029,0.0648 0.2424,0.29517 0.3463,0.32784 1.627,0.90207 3.5137,3.59173 5.5044,3.59173 3.306,0 1.9558,-5.11681 4.3967,-5.13336 4.0504,0 -2.7697,6.21568 -3.0121,6.21568 4.293,0 18.937,4.44461 22.6932,-1.08232 -2.6657,3.65726 -15.9942,-6.15014 -15.2845,-10.9226 0.5367,-3.46025 6.8893,-6.49431 9.607,-8.36396 7.27,-5.5104 -2.5618,-4.31315 -3.687,-5.9205 -0.4326,-0.67242 11.6667,-14.53045 11.5974,-14.53045 -3.0118,0.21311 -4.7947,-0.5577 -4.7947,-4.01797 0,-1.3777 8.153,2.01704 9.1914,0.9184 0.4675,-0.50849 -1.7308,-7.98694 1.8523,-6.24853 3.0118,1.3777 11.1302,0.5085 13.2591,-2.06646 8.2223,-9.87272 -4.3965,-10.3157 -0.2075,-19.95898 -5.0027,11.75893 19.1271,11.87386 20.6504,-0.26231 0.5366,-3.95244 5.9891,-7.08487 9.053,-9.74167 7.1316,-6.11728 -0.6059,-10.44697 10.8186,-15.79322 3.6178,-1.70576 13.0516,-1.60737 14.9728,-4.26417 4.5352,-6.51085 5.8507,-12.23455 8.1878,-19.31943 1.0903,-3.19796 -1.0214,-4.90349 -0.3118,-8.00306 0.8826,-4.01818 7.2356,-7.26532 9.832,-10.34856 4.2928,-5.08396 8.0316,-15.3178 -0.4156,-18.72888 z"
         id="path1154"
         inkscape:connector-curvature="0"
         style="fill:#ffffff" /><path
         d="m -2017.4437,605.15033 c 0.5712,-0.24618 2.4062,-4.11656 2.7697,-4.82163 3.2714,-6.11729 -1.0906,-5.77291 -6.0586,-10.21732 -4.6909,-4.23128 -9.2952,-4.88737 -14.2977,-9.64328 -4.0852,-3.83772 -7.0623,-11.28329 -12.2035,-4.83817 -2.5271,3.19815 -5.3486,4.0345 -8.9317,2.11563 -5.4181,-2.85358 0.3636,-3.49313 -0.9866,-5.60879 -1.6272,-2.52552 -8.7242,-4.05081 -15.1807,-4.8053 v 67.7161 c 0.1029,-0.0984 0.069,-0.22945 0.2424,-0.32783 2.9771,-1.3777 8.5854,1.37749 10.9569,-1.67288 1.9562,-2.44369 -4.76,-3.6244 0.2772,-7.1504 0.9173,-0.63976 8.0142,-1.54163 8.2566,-2.2469 0.2424,-0.67242 3.1158,-3.08323 3.41,-1.06599 0.9867,7.1012 3.0466,4.05082 8.1874,2.41081 1.4541,-0.44276 15.2846,-2.46001 14.4711,-4.2968 -4.3967,-9.75801 -5.4699,1.98439 -9.5725,-5.78925 -1.0557,-2.03357 -6.9238,4.34601 -5.3485,-2.64047 1.6272,-7.33084 -16.8771,0.19678 -19.3697,0.90208 1.8521,-1.16438 21.2737,-12.2017 21.2737,-8.33132 0,8.4297 7.9798,0.93473 13.4497,-0.42643 1.3848,-0.34439 7.7029,-5.70718 8.1529,-2.16485 0.277,2.08299 -8.6549,8.4297 -6.8546,10.88973 -0.1734,-0.26231 20.0445,2.39449 20.5292,1.31197 2.458,-5.24788 -9.4858,-10.85685 -13.1727,-9.29871 z"
         id="path1156"
         inkscape:connector-curvature="0"
         style="fill:#ffffff" /><path
         d="m -2061.6526,700.97607 c -3.7564,-0.90186 -7.599,0.36091 -10.6456,2.52576 v 2.27955 c 5.4179,0.62322 11.0957,3.08324 15.6826,2.44368 3.9467,-0.54114 -3.5312,-6.90441 -5.037,-7.24899 z"
         id="path1158"
         inkscape:connector-curvature="0"
         style="fill:#ffffff" /><path
         d="m -1552.4285,566.49579 c -0.6752,1.11641 -1.8867,2.00593 -4.3968,1.55238 -6.664,-1.16873 -5.9545,-3.71526 -11.9955,3.26192 -1.2463,1.48267 -6.9239,5.25025 -8.828,3.94214 1.0213,0.64526 4.5351,-4.60499 6.0931,-8.73906 l -38.947,-18.68139 h -24.6145 c -11.2511,1.15116 -26.3107,2.66878 -25.2548,5.04098 -0.7791,-1.84895 0.1028,-3.66294 0.5712,-5.04098 h -7.0277 c -1.056,3.12234 -0.069,8.87847 -0.3462,8.73885 -3.514,-1.76165 -2.7004,-4.97125 -7.6336,-1.70933 -1.7656,0.31394 -3.4793,0.88952 -5.1065,1.70933 -1.8175,2.42475 1.0907,4.77956 -3.3408,5.14584 -4.6389,0.36626 -4.6389,-2.52939 -9.0529,-0.50589 -5.8853,2.6514 -2.3022,-7.60506 -6.2489,-7.11679 6.3181,-0.75012 19.7504,5.54685 24.6839,-2.38955 0.069,-0.14027 -6.0931,-1.8142 -14.5056,-3.87246 h -75.834 c -1.7311,1.81399 -3.2196,4.30843 -4.9333,5.63412 -6.6988,5.21553 -12.2726,8.44227 -19.9063,11.93087 -6.7334,3.03525 -11.1301,14.54751 -1.5925,18.01873 4.2583,1.56974 20.9623,-9.71586 16.1328,4.57004 -1.8002,5.47714 13.6227,1.58732 16.098,-0.4186 2.1638,-1.79661 3.3754,-6.59354 5.7469,-9.00068 6.1448,-6.15737 -4.3968,-4.16881 -4.1891,-7.74467 0.2771,-5.96545 13.8305,-3.83751 15.5789,-10.86701 1.7656,-6.99456 11.0608,-0.88952 12.0994,-2.49421 -2.6311,4.01185 -13.4842,5.30258 -14.0902,10.41346 -1.3154,11.23326 9.4339,5.66883 14.0902,6.15734 4.1544,0.40123 10.3514,-2.30249 12.4457,2.82576 1.4196,3.43626 -20.6505,0.94183 -20.6505,3.17464 0,0.76749 6.3873,2.89542 4.2582,4.25609 -3.9292,2.4942 -7.3738,-3.38394 -10.7839,1.46507 -1.6271,2.28513 -1.2117,10.01222 -4.7947,8.82612 -6.526,-2.19762 -14.9039,0.2966 -21.2739,0.2966 -5.2795,0 -9.226,0.69779 -8.1875,-6.80263 0.5713,-4.1167 -6.8891,-2.11079 -7.9451,-0.069 -2.7004,5.42481 1.1079,5.42481 2.1292,9.54129 -1.056,-4.29081 -19.1273,6.14 -22.1046,7.08183 -4.2928,1.3954 -2.1291,5.07592 -8.7242,6.38425 -1.6963,0.36627 -14.7478,2.54653 -15.3885,4.44779 -0.5709,1.72694 16.7735,3.13992 10.3861,14.80916 -2.1984,3.92478 -19.1619,-1.06408 -23.2296,0.5582 -1.5927,0.64548 -3.7217,14.40791 -3.7909,16.44878 -0.2079,4.46538 15.1805,10.25648 14.54,10.9367 1.8524,-1.81399 19.8717,-7.09943 18.6947,-10.29144 -1.8001,-4.97126 13.0861,-16.22189 17.1018,-14.98348 4.9681,1.48267 6.7336,-0.88951 10.9573,-2.96535 4.4312,-2.25016 7.5988,5.25048 10.3858,7.2388 2.9426,2.12817 6.5605,2.84334 9.9011,4.16904 3.0119,1.16872 4.6045,8.19823 6.7335,8.32024 2.4408,0.14027 -1.0905,-8.0063 6.1278,-7.46568 -5.7816,-4.04658 -11.3208,-8.25035 -16.9982,-12.2448 -0.3463,-0.2269 -6.3874,-4.98886 -2.0599,-5.4945 3.6871,-0.43619 9.4338,5.86076 12.1688,7.72709 7.6334,5.32015 12.2032,12.17533 16.2884,20.47798 2.908,5.91332 15.3193,-0.64526 6.1796,-7.60508 -0.3463,-0.27899 6.5257,-4.48275 6.8893,-4.63972 4.6389,-2.11057 2.7348,8.30288 3.5831,10.04717 3.0119,5.89574 18.4521,7.04687 23.6277,6.03513 13.6229,-2.65119 6.9932,7.36104 1.8523,16.03018 -0.1031,0.17368 -14.298,0.54061 -21.1701,2.77343 2.1986,-1.4653 4.3968,-2.98272 3.5832,-3.99448 -1.2117,-1.56994 -22.6929,-3.92477 -24.2681,-3.13968 -7.9451,3.95951 -10.5762,9.47138 -19.6812,3.24433 -4.1199,-2.82574 -9.1222,-2.91302 -13.3456,-5.70381 -8.257,-5.45976 1.0556,-2.51179 -1.5927,-9.8205 -5.245,-14.51257 -68.7023,3.24455 -69.6371,19.18724 -0.4674,8.28552 -11.0955,8.04126 -14.869,14.86147 -4.293,7.74468 -7.7029,12.26239 -5.5738,20.77457 0.952,3.83748 0.8137,15.75099 -4.7948,16.85002 -5.3141,1.09881 12.3763,17.82658 12.3073,17.7393 3.9638,4.76196 7.0276,9.29727 11.7705,13.48345 10.0742,8.89603 7.1662,1.86652 18.1234,1.86652 10.1433,0 16.773,-4.55266 26.1376,-5.61673 6.0238,-0.68023 5.9199,5.11086 9.0185,8.21559 3.9293,4.01206 7.9451,-3.92455 10.455,-1.91863 8.0143,6.36666 1.0558,11.4252 -0.139,20.93154 -0.3115,2.09319 10.1436,12.9602 11.7358,15.45442 1.5234,2.38976 6.0239,19.53612 4.57,20.63517 -8.7243,6.57595 -7.4086,16.55321 -2.7004,25.15267 4.0505,7.37841 7.2354,12.62866 7.2354,21.35015 0,6.22728 6.9933,11.61712 9.0532,17.44294 0.9865,2.82575 3.6869,19.01291 10.7839,11.96605 5.6428,-5.79109 19.1272,-0.75015 26.7781,-8.28552 2.406,-2.33724 14.9038,-13.11718 14.0036,-16.83243 -2.233,-8.65178 9.6761,-5.86077 8.3088,-12.9426 -1.3849,-7.13416 -4.2929,-12.08806 3.7561,-16.97204 8.2913,-5.04118 14.0382,-7.90166 12.6361,-19.51879 -0.675,-5.86078 -1.0907,-15.69865 -4.8639,-20.73962 -3.6179,-4.8666 6.5948,-13.78001 9.0528,-16.58839 10.1782,-11.45992 20.0448,-18.05326 28.163,-31.53669 16.4615,-27.3158 -24.9433,0.38364 -23.8008,-10.53569 0.7442,-6.8899 -11.4937,-17.54761 -14.5403,-23.32109 -5.5737,-10.69267 -10.4204,-22.67585 -16.9462,-32.84526 10.6455,-2.63381 14.09,14.18125 17.881,22.13524 2.4752,5.07591 7.9798,7.18646 10.0742,12.76827 2.7696,7.3608 0.8481,17.98355 11.3553,15.47176 10.3165,-2.51181 26.8473,-8.23297 34.9656,-14.7566 5.3488,-4.29104 8.5164,-9.82051 12.5841,-15.193 2.1984,-2.96512 -10.9571,-12.95997 -12.7052,-12.95997 -0.8484,0 -12.1689,10.51809 -12.4804,6.27937 -0.3117,-4.15143 -7.7374,-11.25063 -10.7496,-14.35558 -2.5617,-2.68615 -2.6308,-6.54101 1.4541,-7.98873 2.8389,-0.99439 4.3968,5.19794 5.5046,6.61069 2.4408,2.94797 8.1876,6.29697 11.736,7.46569 2.4753,0.85478 5.0025,-3.52354 7.3395,-2.56411 5.9545,2.31986 5.7813,6.92485 13.4495,7.46568 6.595,0.43597 10.2128,-0.36649 15.925,-2.66876 10.7839,-4.32601 13.3804,26.5307 23.3334,12.36704 0.035,8.30288 -0.2423,15.43703 3.514,23.09444 1.2462,2.58148 12.6706,26.5307 12.9131,26.5307 5.1409,0 9.0184,-16.78012 9.3991,-20.5477 0.6751,-6.64586 2.8735,-9.08795 6.0583,-11.79146 V 566.56634 h -12.6706 z m -147.8771,210.44942 c 2.1983,3.55829 -6.0237,12.99494 -7.2009,6.97718 -0.6058,-2.94798 3.6525,-12.66361 7.2009,-6.97718 z m -3.1156,-202.0942 c -1.4541,1.97094 -8.8973,-0.17369 -7.9454,-2.8607 1.4195,-3.99448 9.3646,0.85477 7.9454,2.8607 z m 27.453,64.22497 c -9.6415,2.4245 -15.7171,-3.05263 -24.7874,-2.82575 -2.1638,0.069 -19.3697,6.59333 -20.2524,4.83167 -0.6752,-5.80846 5.0371,-22.18756 13.0515,-20.56529 6.1276,1.16874 2.3367,9.94255 10.1779,6.00041 -0.2075,0.10463 10.542,-10.25648 10.0745,-5.38987 -0.1391,1.01174 -4.4313,2.72109 -3.7563,3.45363 0.4848,0.52326 22.9355,12.6113 15.4922,14.4952 z m 44.2263,-13.97194 c -3.9637,2.89565 -13.1898,-4.16883 -13.8996,3.40151 -0.069,0.74992 6.924,7.50044 8.3781,7.95398 1.3847,0.4186 3.0463,9.89021 3.7907,13.27416 2.1292,9.5413 -13.1901,3.73261 -17.5522,2.4942 -8.7586,-2.58149 4.6739,-9.94253 5.3834,-10.57042 0.9175,-0.83719 -10.0396,-7.98893 -11.4935,-10.08192 -8.1531,-11.66945 4.8985,-7.62266 9.5377,-10.48336 2.2674,-1.43035 4.535,-4.2385 7.4429,-3.6803 1.2118,0.22667 11.0091,5.68621 8.4125,7.69215 z"
         id="path1160"
         inkscape:connector-curvature="0"
         style="fill:#ffffff" /><path
         d="m -1617.156,951.96376 h 64.1327 v -54.4321 c -1.4887,-0.32805 -2.735,-0.50829 -3.2716,-0.50829 -1.8175,0 -1.4887,4.36233 -1.4193,5.34626 -0.8828,-1.24623 -5.47,-4.50992 -5.4353,-4.83797 -0.6058,3.69013 -2.5272,5.54326 -3.964,8.87248 -1.8001,4.36255 -9.2259,-6.41246 -13.4497,0.73794 -3.2716,5.54325 -6.2141,4.24762 -10.5763,8.36418 -2.1983,2.0991 -0.2076,6.93728 -3.6175,7.39638 -2.9428,0.41011 -6.924,2.05012 -9.8668,1.98438 -6.3525,-0.16328 -9.2953,3.13244 -14.5748,6.21568 -4.5696,2.65681 0.7098,10.62742 -0.2768,14.08768 -0.6576,2.36163 0.7963,4.55933 2.3194,6.77338 z"
         id="path1162"
         inkscape:connector-curvature="0"
         style="fill:#ffffff" /></g><path
       inkscape:connector-curvature="0"
       id="path7598"
       d="M 55.788075,124.45108 C 40.793457,122.416 26.161687,113.88777 16.432207,101.51222 c -3.638792,-4.628407 -4.128332,-6.307497 -1.838942,-6.307497 1.614885,0 2.654433,-0.81465 2.654433,-2.08016 0,-0.53874 0.55792,-0.96662 1.508241,-1.15668 0.886581,-0.17732 1.871715,-0.88743 2.390086,-1.72283 0.485015,-0.78166 1.388477,-1.99547 2.007692,-2.69736 0.619214,-0.70189 1.283729,-1.79851 1.476697,-2.43692 0.252638,-0.835821 0.996697,-1.333487 2.658015,-1.777819 2.598342,-0.694952 3.501847,-1.935626 4.047685,-5.558197 0.186003,-1.23445 0.859085,-2.790599 1.513531,-3.499246 1.382105,-1.496567 2.16215,-3.460605 1.878098,-4.728772 -0.298319,-1.331869 -4.888379,-3.37897 -10.461102,-4.665499 -0.889262,-0.2053 -1.403788,-0.659714 -1.403788,-1.23979 0,-0.885985 -2.464084,-3.659059 -3.251347,-3.659059 -0.213347,0 -1.521616,-0.487707 -2.907262,-1.083797 -1.730609,-0.744487 -2.519359,-1.381802 -2.519359,-2.035656 0,-0.807128 -0.40748,-0.952846 -2.67996,-0.958374 -3.9469998,-0.0096 -5.4875398,-0.207118 -5.4875398,-0.703544 0,-0.243314 -0.48944,-0.314397 -1.08765,-0.157959 -1.03411,0.270426 -1.07222,0.153993 -0.77423,-2.36519 0.43775,-3.700589 3.16764,-12.175278 5.29321,-16.432269 C 18.668143,17.78141 35.901329,5.2137937 56.038159,2.2693997 c 6.13134,-0.896521 16.365127,-0.351128 22.612063,1.205071 2.747658,0.684481 5.14048,1.389247 5.317378,1.566146 0.176902,0.1769 -2.400943,0.321636 -5.728545,0.321636 -5.456654,0 -6.162887,0.10588 -7.199031,1.079284 -0.631863,0.593606 -2.254643,1.80285 -3.60618,2.687208 -2.156449,1.4110433 -2.457334,1.8251873 -2.457334,3.3823033 0,1.558449 0.186362,1.81423 1.531405,2.101848 0.842274,0.180108 1.244268,0.354647 0.89332,0.387864 -0.350947,0.03322 -0.638085,0.609771 -0.638085,1.281229 0,0.843553 -0.35814,1.31072 -1.158902,1.511699 -0.637396,0.159975 -2.187945,0.964102 -3.445663,1.786946 -1.257718,0.822845 -3.033321,1.653953 -3.945784,1.846907 -1.991629,0.421161 -2.082104,0.896012 -0.382851,2.009406 2.213672,1.450453 1.641355,2.344049 -1.501278,2.344049 -1.527598,0 -2.897471,0.194194 -3.04416,0.431541 -0.146688,0.237348 -0.417916,1.377153 -0.602728,2.5329 -0.320861,2.006561 -0.253688,2.149935 1.48903,3.178163 l 1.825048,1.076806 -1.762914,1.547862 c -0.969606,0.851323 -1.762918,1.856941 -1.762918,2.234705 0,0.377764 -0.783792,1.284671 -1.741758,2.015348 -2.088839,1.593234 -3.399676,4.605989 -3.288052,7.557076 0.04493,1.187906 -0.221172,2.644794 -0.591341,3.237529 -0.613947,0.983086 -0.412284,1.38562 2.297022,4.585029 4.323279,5.105344 3.973319,4.96887 9.486582,3.699473 l 4.712329,-1.084986 0.853718,1.131796 c 0.486574,0.645068 1.276488,1.06206 1.836783,0.969629 1.77589,-0.292952 2.199727,0.384848 1.634097,2.613252 -0.436287,1.71884 -0.367389,2.250595 0.436379,3.367929 2.660011,3.697717 3.495347,6.910632 2.147225,8.258754 -0.881365,0.881365 -0.600117,3.905962 0.577927,6.215118 0.57029,1.117865 1.036894,2.507585 1.036894,3.088274 0,1.147905 3.319802,8.466869 4.043299,8.914009 0.244561,0.15115 1.100275,-0.0671 1.901578,-0.48503 0.801303,-0.41792 2.093753,-0.76126 2.87211,-0.76299 1.690902,-0.004 5.986602,-3.71244 5.986602,-5.16852 0,-0.52338 0.459422,-1.238511 1.020937,-1.589183 0.751553,-0.469355 1.020937,-1.190428 1.020937,-2.732788 0,-3.017227 2.77187,-5.333427 3.154926,-2.636284 0.315776,2.223422 1.989888,1.362701 3.627058,-1.864803 1.906074,-3.757615 2.425511,-7.280094 1.145956,-7.771103 -0.610087,-0.234111 -1.243614,0.11607 -2.061482,1.139493 -1.31635,1.647175 -1.698084,1.489262 -2.576483,-1.065822 -0.728443,-2.118909 -0.463209,-2.595953 4.120395,-7.410845 1.737263,-1.824925 3.670628,-4.321648 4.296372,-5.548273 1.50658,-2.953346 0.9619,-3.519213 -2.596772,-2.697775 -2.121349,0.489667 -2.73705,0.482188 -3.066711,-0.03726 -0.665253,-1.048215 -0.525145,-1.15931 1.489231,-1.180847 2.751134,-0.02941 8.378602,-2.809934 10.006472,-4.944178 1.75669,-2.303143 1.70192,-3.515174 -0.22315,-4.938447 -0.86435,-0.639036 -1.44003,-1.29339 -1.2793,-1.454117 0.16072,-0.160728 0.76528,0.135872 1.34345,0.659112 1.0996,0.995118 4.0036,1.291759 5.89911,0.602588 0.88441,-0.321555 1.31312,-0.02855 2.43196,1.66214 0.74706,1.128906 1.68919,2.052535 2.09362,2.052535 0.44861,0 0.86867,0.746415 1.0773,1.914257 0.52068,2.914626 3.65462,9.444649 4.41438,9.19799 0.35741,-0.116034 1.01392,-1.34292 1.45892,-2.726417 l 0.8091,-2.515441 0.32328,2.552343 c 1.28416,10.138446 0.72721,18.593092 -1.78099,27.036008 -2.05935,6.932057 -4.67349,12.519257 -5.87003,12.546047 -1.06816,0.0239 -3.93257,2.39152 -4.37439,3.6157 -0.16745,0.46395 -1.15987,0.98623 -2.25416,1.18632 -3.18871,0.58301 -4.25213,1.53967 -4.25213,3.825217 0,2.70081 0.42318,3.60326 1.68962,3.60326 0.93319,0 0.81204,0.26935 -0.94793,2.10755 -1.10982,1.15915 -3.81736,3.45578 -6.01675,5.10362 -11.171574,8.37001 -22.960723,12.26403 -36.663548,12.11016 -3.746129,-0.0421 -7.500273,-0.17002 -8.342547,-0.28434 l 0,0 z m 2.67996,-105.078439 c 0.992208,-0.304299 0.772773,-0.987537 -1.020937,-3.17884 -0.912462,-1.114718 -1.897228,-2.431065 -2.188368,-2.925216 -0.497799,-0.844915 -0.62708,-0.847912 -2.16949,-0.0503 -0.902081,0.466484 -1.640147,1.061524 -1.640147,1.32231 0,0.260786 -0.591245,1.065401 -1.313877,1.788033 -1.474245,1.474245 -1.419794,2.484572 0.146401,2.716445 0.645926,0.09563 1.444183,-0.346147 2.075357,-1.148554 1.231349,-1.565406 1.641535,-1.658264 1.283896,-0.290647 -0.600444,2.2961 1.087182,2.913781 4.827165,1.76677 l 0,0 z"
       style="fill:#c0c0c0;fill-opacity:1;fill-rule:evenodd;stroke:none" /><path
       inkscape:connector-curvature="0"
       id="path7600"
       d="m 72.276572,35.374843 c -2.083136,-0.896372 -2.424725,-1.24875 -2.424725,-2.5013 0,-1.83588 -1.351076,-2.24767 -5.961881,-1.817107 l -3.302225,0.308367 0.975731,-1.64335 c 0.810697,-1.365394 1.248798,-1.621435 2.590179,-1.513789 1.102863,0.08851 1.614447,-0.09615 1.614447,-0.582747 0,-0.391769 0.586412,-0.859487 1.303137,-1.039373 1.32327,-0.33212 2.659547,0.41875 5.70467,3.20552 1.160111,1.061686 1.367681,1.106516 1.772664,0.382851 0.693945,-1.240009 1.619191,-0.989022 2.623871,0.711766 0.497543,0.842273 1.06392,1.527888 1.258615,1.523589 0.982443,-0.02169 1.748884,-1.014469 1.50454,-1.94884 -0.15656,-0.598689 0.0079,-1.14762 0.387362,-1.29325 0.83932,-0.322077 1.269667,0.110128 1.269667,1.27515 0,1.294978 1.780245,2.092557 4.670714,2.092557 2.64397,0 3.204116,0.780314 1.83776,2.560099 -0.747905,0.974204 -4.4666,1.797538 -4.4666,0.988923 0,-0.291802 -1.231374,-0.684398 -2.736386,-0.872437 -2.039729,-0.254847 -3.137938,-0.134239 -4.313633,0.473737 -0.867486,0.448595 -1.646082,0.797034 -1.730214,0.77431 -0.08413,-0.02272 -1.244094,-0.510828 -2.577693,-1.084676 z m -1.914257,-5.492139 c 0,-0.600204 -2.020303,-1.741093 -2.403891,-1.357505 -0.151017,0.151017 -0.138553,0.62905 0.0277,1.062295 0.326655,0.85125 2.376192,1.105877 2.376192,0.29521 z"
       style="fill:#c0c0c0;fill-opacity:1;fill-rule:evenodd;stroke:none" /><path
       inkscape:connector-curvature="0"
       id="path7602"
       d="m 83.375956,27.254294 c 0.873193,-2.915203 2.519432,-4.358186 3.136755,-2.74947 0.330179,0.860433 1.768247,1.019741 2.509939,0.278049 0.309893,-0.309892 1.230977,0.144557 2.526819,1.246696 l 2.039166,1.734349 -3.828514,-0.09814 c -2.105683,-0.05398 -4.485627,0.105421 -5.288764,0.354219 -1.373846,0.425595 -1.438661,0.380289 -1.095401,-0.765702 z"
       style="fill:#c0c0c0;fill-opacity:1;fill-rule:evenodd;stroke:none" /><path
       inkscape:connector-curvature="0"
       id="path7604"
       d="m 100.48236,31.303068 -1.784244,-0.511473 1.227128,-0.993668 1.227126,-0.993668 -1.612375,-1.663551 c -0.886807,-0.914953 -1.612377,-1.883824 -1.612377,-2.153046 0,-0.669809 3.842152,-1.819676 4.822822,-1.443359 1.24148,0.476401 0.92734,1.099988 -0.424,0.841663 -1.71234,-0.327334 -2.1527,0.748033 -0.86683,2.116781 1.68858,1.79741 2.49702,5.53238 1.15972,5.357833 -0.194,-0.02532 -1.15564,-0.276201 -2.13697,-0.557512 z"
       style="fill:#a9a9a9;fill-opacity:1;fill-rule:evenodd;stroke:none" /><path
       inkscape:connector-curvature="0"
       id="path7606"
       d="M 69.847524,16.782165 C 69.63,16.564641 69.466153,16.209071 69.483422,15.99201 c 0.07281,-0.915183 0.0086,-1.026249 -0.595111,-1.029045 -0.322604,-0.0015 -0.883044,-0.106014 -1.245422,-0.232265 l -0.658869,-0.229546 0.929586,-0.246968 c 0.511272,-0.135832 1.254446,-0.254654 1.651497,-0.26405 l 0.721912,-0.01708 -0.03511,1.036823 c -0.03287,0.970821 -0.0061,1.044101 0.420412,1.15115 0.64414,0.161669 2.292226,-0.06115 3.020298,-0.408346 0.369691,-0.176294 0.778182,-0.590457 1.022414,-1.036611 0.223706,-0.408659 0.598055,-1.001546 0.831887,-1.317527 0.596339,-0.805847 0.544414,-1.196779 -0.206525,-1.554877 -1.172485,-0.559119 -0.77531,-1.090008 1.385949,-1.8525448 0.915969,-0.323172 1.306813,-0.653818 1.594854,-1.3492108 0.119009,-0.2873115 0.3735,-0.5722527 0.565537,-0.6332028 0.472021,-0.1498138 1.805463,0.088455 1.675138,0.2993249 -0.05728,0.092688 -0.577276,0.407355 -1.155537,0.6992602 -1.389474,0.7014045 -1.873646,1.3169153 -1.752203,2.2275163 0.05067,0.379959 0.24114,0.808129 0.423259,0.95149 0.336376,0.264787 0.403179,0.264146 3.784098,-0.03632 1.169062,-0.103896 1.323704,-0.07793 1.684461,0.282825 0.218473,0.218473 0.343301,0.451367 0.277396,0.517542 -0.06591,0.06617 -1.067855,0.164071 -2.226554,0.217548 -2.599128,0.119955 -2.824785,0.225669 -1.997323,0.935686 l 0.613828,0.526705 -1.095256,-0.108277 c -1.306203,-0.129132 -1.506899,0.02368 -2.004899,1.526541 -0.263148,0.794127 -0.401108,0.98495 -0.689881,0.954233 -1.011611,-0.107608 -1.819968,-0.101267 -3.90227,0.03061 -2.200537,0.139366 -2.291413,0.130827 -2.673469,-0.251229 z"
       style="fill:#333333;fill-opacity:1;fill-rule:evenodd;stroke:none" /><path
       style="fill:#c0c0c0;fill-opacity:1;fill-rule:evenodd;stroke:none"
       d="M 69.847524,16.782165 C 69.63,16.564641 69.466153,16.209071 69.483422,15.99201 c 0.07281,-0.915183 0.0086,-1.026249 -0.595111,-1.029045 -0.322604,-0.0015 -0.883044,-0.106014 -1.245422,-0.232265 l -0.658869,-0.229546 0.929586,-0.246968 c 0.511272,-0.135832 1.254446,-0.254654 1.651497,-0.26405 l 0.721912,-0.01708 -0.03511,1.036823 c -0.03287,0.970821 -0.0061,1.044101 0.420412,1.15115 0.64414,0.161669 2.292226,-0.06115 3.020298,-0.408346 0.369691,-0.176294 0.778182,-0.590457 1.022414,-1.036611 0.223706,-0.408659 0.598055,-1.001546 0.831887,-1.317527 0.596339,-0.805847 0.544414,-1.196779 -0.206525,-1.554877 -1.172485,-0.559119 -0.77531,-1.090008 1.385949,-1.8525448 0.915969,-0.323172 1.306813,-0.653818 1.594854,-1.3492108 0.119009,-0.2873115 0.3735,-0.5722527 0.565537,-0.6332028 0.472021,-0.1498138 1.805463,0.088455 1.675138,0.2993249 -0.05728,0.092688 -0.577276,0.407355 -1.155537,0.6992602 -1.389474,0.7014045 -1.873646,1.3169153 -1.752203,2.2275163 0.05067,0.379959 0.24114,0.808129 0.423259,0.95149 0.336376,0.264787 0.403179,0.264146 3.784098,-0.03632 1.169062,-0.103896 1.323704,-0.07793 1.684461,0.282825 0.218473,0.218473 0.343301,0.451367 0.277396,0.517542 -0.06591,0.06617 -1.067855,0.164071 -2.226554,0.217548 -2.599128,0.119955 -2.824785,0.225669 -1.997323,0.935686 l 0.613828,0.526705 -1.095256,-0.108277 c -1.306203,-0.129132 -1.506899,0.02368 -2.004899,1.526541 -0.263148,0.794127 -0.401108,0.98495 -0.689881,0.954233 -1.011611,-0.107608 -1.819968,-0.101267 -3.90227,0.03061 -2.200537,0.139366 -2.291413,0.130827 -2.673469,-0.251229 z"
       id="path7608"
       inkscape:connector-curvature="0" /><path
       inkscape:connector-curvature="0"
       id="path7610"
       d="m 89.027735,8.5821359 c -0.343288,-1.2993272 -0.336077,-1.3773577 0.117273,-1.2691082 0.239816,0.057263 0.862696,0.1639848 1.384177,0.2371608 0.962631,0.1350796 1.993493,0.5497562 1.988207,0.79978 -0.0093,0.4413263 -0.401517,0.5552219 -1.848023,0.5366856 C 89.448621,8.8710107 89.0863,8.8038014 89.027735,8.5821359 z"
       style="fill:#c0c0c0;fill-opacity:1;fill-rule:evenodd;stroke:none" /><path
       inkscape:connector-curvature="0"
       id="path7614"
       d="m 85.726783,12.073199 c -0.331868,-0.23245 -0.381802,-0.360198 -0.217959,-0.557617 0.116894,-0.140848 0.355629,-0.205523 0.530522,-0.143721 0.409304,0.144635 0.981691,0.63594 0.981691,0.842628 0,0.269676 -0.838149,0.178178 -1.294254,-0.14129 z"
       style="fill:#c0c0c0;fill-opacity:1;fill-rule:evenodd;stroke:none" /><path
       inkscape:connector-curvature="0"
       id="path7616"
       d="m 102.03641,41.909543 c -0.19931,-0.443259 -0.88597,-1.394585 -1.52591,-2.114057 -1.20912,-1.359379 -1.368193,-1.778641 -0.865548,-2.281287 0.486388,-0.486391 0.750548,-0.351202 1.305268,0.667999 0.5205,0.95632 1.45486,1.717843 2.78244,2.267745 0.46851,0.194064 0.66449,0.196003 0.96309,0.0095 0.31405,-0.196132 0.41614,-0.178253 0.62921,0.110201 0.21829,0.295523 0.20943,0.354236 -0.0625,0.41431 -0.17424,0.0385 -0.84068,0.44383 -1.48098,0.900741 -0.64031,0.456911 -1.21336,0.830747 -1.27346,0.830747 -0.0601,0 -0.27233,-0.362667 -0.47164,-0.805926 z"
       style="fill:#a9a9a9;fill-opacity:1;fill-rule:evenodd;stroke:none" /><path
       inkscape:connector-curvature="0"
       id="path7618"
       d="m 94.696904,51.42541 c -0.0651,-0.205111 -0.743945,-1.209547 -1.508545,-2.232081 -0.983969,-1.315904 -1.805805,-2.741737 -2.812562,-4.879617 -0.782309,-1.661256 -1.642804,-3.404465 -1.912211,-3.873799 -0.269408,-0.469333 -0.49086,-0.917333 -0.492117,-0.995555 -0.0051,-0.318323 0.764542,-0.110747 1.318889,0.355705 0.672111,0.565544 1.015018,1.182572 1.961086,3.528782 0.444773,1.103017 0.98055,2.018978 1.607759,2.748613 1.153685,1.342088 1.233163,1.499982 1.648528,3.275048 0.18304,0.782222 0.447538,1.606324 0.587775,1.831336 0.215363,0.345554 0.2134,0.425069 -0.01263,0.511805 -0.158512,0.06083 -0.315861,-0.04934 -0.38597,-0.270237 l -10e-7,0 z"
       style="fill:#c0c0c0;fill-opacity:1;fill-rule:evenodd;stroke:none" /><path
       inkscape:connector-curvature="0"
       id="path7620"
       d="m 74.537348,29.700416 c 0.03647,-0.189371 0.262928,-0.442336 0.503242,-0.562146 0.240314,-0.119809 0.416432,-0.292619 0.391373,-0.384022 -0.02506,-0.0914 -0.905102,-0.815489 -1.955651,-1.609081 -2.007752,-1.51667 -2.711697,-2.180189 -2.518252,-2.373634 0.502461,-0.502461 4.123964,2.441665 5.504619,4.475019 0.464315,0.683818 0.389817,0.847468 -0.181289,0.398236 -0.629397,-0.495084 -0.91603,-0.494383 -1.41387,0.0035 -0.354772,0.354772 -0.389505,0.36026 -0.330172,0.05217 l 0,10e-7 z"
       style="fill:#c0c0c0;fill-opacity:1;fill-rule:evenodd;stroke:none" /><path
       inkscape:connector-curvature="0"
       id="path7624"
       d="M 6.6438214,83.071999 C 6.6296601,83.000832 6.319407,81.89504 5.95437,80.614684 5.1254766,77.707367 5.1249255,77.512885 5.9480888,78.398009 c 0.8694957,0.934944 1.1339272,1.977966 0.902826,3.561098 -0.09974,0.683258 -0.1929322,1.18406 -0.2070934,1.112892 z"
       style="fill:#f5f5f5;fill-opacity:1;fill-rule:evenodd;stroke:none" /></g></svg>