<?xml version="1.0" encoding="UTF-8" standalone="no"?>
<!-- Generator: Adobe Illustrator 14.0.0, SVG Export Plug-In . SVG Version: 6.00 Build 43363)  -->

<svg
	xmlns:dc="http://purl.org/dc/elements/1.1/"
	xmlns:cc="http://creativecommons.org/ns#"
	xmlns:rdf="http://www.w3.org/1999/02/22-rdf-syntax-ns#"
	xmlns="http://www.w3.org/2000/svg"
	xmlns:sodipodi="http://sodipodi.sourceforge.net/DTD/sodipodi-0.dtd"
	xmlns:inkscape="http://www.inkscape.org/namespaces/inkscape"
	version="1.1"
	x="0px"
	y="0px"
	width="128"
	height="128"
	viewBox="0 0 128 128"
	enable-background="new 0 0 780 650"
	xml:space="preserve"
	id="svg2"
	inkscape:version="0.48.5 r10040"
	sodipodi:docname="status_search.svg"><metadata
     id="metadata1456"><rdf:RDF><cc:Work
         rdf:about=""><dc:format>image/svg+xml</dc:format><dc:type
	rdf:resource="http://purl.org/dc/dcmitype/StillImage"/></cc:Work></rdf:RDF></metadata>
	<defs
		id="defs1454"><clipPath
       clipPathUnits="userSpaceOnUse"
       id="clipPath3093"><path
         sodipodi:type="arc"
         style="fill:#ff0000;fill-opacity:1;fill-rule:evenodd;stroke:none"
         id="path3095"
         sodipodi:cx="64.663704"
         sodipodi:cy="63.905186"
         sodipodi:rx="61.629631"
         sodipodi:ry="62.957039"
         d="m 126.29333,63.905186 a 61.629631,62.957039 0 1 1 -123.2592571,0 61.629631,62.957039 0 1 1 123.2592571,0 z" /></clipPath>
		<clipPath
			clipPathUnits="userSpaceOnUse"
			id="clipPath3097"><path
         sodipodi:type="arc"
         style="fill:#ff0000;fill-opacity:1;fill-rule:evenodd;stroke:none"
         id="path3099"
         sodipodi:cx="64.663704"
         sodipodi:cy="63.905186"
         sodipodi:rx="61.629631"
         sodipodi:ry="62.957039"
         d="m 126.29333,63.905186 a 61.629631,62.957039 0 1 1 -123.2592571,0 61.629631,62.957039 0 1 1 123.2592571,0 z"
         transform="matrix(0.12972965,0,0,0.12972965,787.5614,700.50245)" /></clipPath></defs>
	<sodipodi:namedview
		pagecolor="#ffffff"
		bordercolor="#666666"
		borderopacity="1"
		objecttolerance="10"
		gridtolerance="10"
		guidetolerance="10"
		inkscape:pageopacity="0"
		inkscape:pageshadow="2"
		inkscape:window-width="705"
		inkscape:window-height="724"
		id="namedview1452"
		showgrid="false"
		inkscape:zoom="2.6367188"
		inkscape:cx="6.7318529"
		inkscape:cy="89.980099"
		inkscape:window-x="182"
		inkscape:window-y="59"
		inkscape:window-maximized="0"
		inkscape:current-layer="svg2"/>
	<g
		id="Help"
		transform="matrix(7.7083383,0,0,7.7083383,-6070.7897,-5399.7099)"
		clip-path="url(#clipPath3097)"><path
       d="m 509.778,597.159 c -12.427,0 -22.5,10.074 -22.5,22.5 0,12.428 10.073,22.5 22.5,22.5 12.427,0 22.5,-10.072 22.5,-22.5 -10e-4,-12.426 -10.073,-22.5 -22.5,-22.5 z m -0.559,36.414 c -1.676,0 -3.054,-1.379 -3.054,-3.055 0,-1.676 1.378,-3.053 3.054,-3.053 1.677,0 3.054,1.377 3.054,3.053 0,1.676 -1.377,3.055 -3.054,3.055 z m 2.904,-11.791 c -0.892,1.305 -0.594,3.129 -3.052,3.129 -1.602,0 -2.385,-1.305 -2.385,-2.496 0,-4.432 6.519,-5.436 6.519,-9.086 0,-2.012 -1.34,-3.203 -3.576,-3.203 -4.767,0 -2.905,4.916 -6.518,4.916 -1.304,0 -2.421,-0.783 -2.421,-2.271 0,-3.65 4.172,-6.891 8.714,-6.891 4.769,0 9.46,2.197 9.46,7.449 10e-4,4.842 -5.55,6.703 -6.741,8.453 z"
       id="path695"
       inkscape:connector-curvature="0"
       style="fill:#333333" /></g>
	<style
		id="style8"
		type="text/css">
      .Border { fill: lightGray; stroke: black; stroke-width: 4; }
      .Label { font-size:24; font-family:Arial; fill:black; }
   </style>
	<style
		id="style8-7"
		type="text/css">
      .Border { fill: lightGray; stroke: black; stroke-width: 4; }
      .Label { font-size:24; font-family:Arial; fill:black; }
   </style>
	<style
		id="style8-3"
		type="text/css">
      .Border { fill: lightGray; stroke: black; stroke-width: 4; }
      .Label { font-size:24; font-family:Arial; fill:black; }
   </style>
	<style
		id="style8-6"
		type="text/css">
      .Border { fill: lightGray; stroke: black; stroke-width: 4; }
      .Label { font-size:24; font-family:Arial; fill:black; }
   </style>
	<style
		type="text/css"
		id="style8-1">
      .Border { fill: lightGray; stroke: black; stroke-width: 4; }
      .Label { font-size:24; font-family:Arial; fill:black; }
   </style>
	<style
		type="text/css"
		id="style8-7-0">
      .Border { fill: lightGray; stroke: black; stroke-width: 4; }
      .Label { font-size:24; font-family:Arial; fill:black; }
   </style>
	<style
		type="text/css"
		id="style8-3-2">
      .Border { fill: lightGray; stroke: black; stroke-width: 4; }
      .Label { font-size:24; font-family:Arial; fill:black; }
   </style>
	<style
		type="text/css"
		id="style8-6-7">
      .Border { fill: lightGray; stroke: black; stroke-width: 4; }
      .Label { font-size:24; font-family:Arial; fill:black; }
   </style>
	<path
		style="fill:#333333;fill-opacity:1;fill-rule:evenodd;stroke:none"
		d=""
		id="path7612"
		inkscape:connector-curvature="0"
		clip-path="url(#clipPath3093)"/>
	<g
		transform="matrix(2.635055,0,0,2.635055,-1436.8557,-1252.0676)"
		id="Search"
		style="fill:#cccccc"><path
       style="fill:#cccccc"
       inkscape:connector-curvature="0"
       d="m 591.775,515.452 -10.129,-10.127 c -0.762,-0.762 -1.918,-0.887 -2.822,-0.393 l -2.16,-2.16 c 1.84,-2.613 2.932,-5.791 2.932,-9.223 0,-8.857 -7.207,-16.063 -16.064,-16.063 -8.857,0 -16.063,7.205 -16.063,16.063 0,8.858 7.205,16.064 16.063,16.064 3.418,0 6.582,-1.08 9.188,-2.906 l 2.174,2.176 c -0.467,0.896 -0.336,2.029 0.414,2.781 l 10.129,10.127 c 0.924,0.926 2.439,0.926 3.363,0 l 2.977,-2.975 c 0.922,-0.924 0.922,-2.438 -0.002,-3.364 z m -28.244,-11.787 c -5.584,0 -10.113,-4.529 -10.113,-10.115 0,-5.584 4.529,-10.113 10.113,-10.113 5.586,0 10.115,4.529 10.115,10.113 0,5.586 -4.529,10.115 -10.115,10.115 z"
       id="path651" /></g></svg>