<?xml version="1.0" encoding="UTF-8" standalone="no"?>
<!-- Generator: Adobe Illustrator 14.0.0, SVG Export Plug-In . SVG Version: 6.00 Build 43363)  -->

<svg
   xmlns:dc="http://purl.org/dc/elements/1.1/"
   xmlns:cc="http://creativecommons.org/ns#"
   xmlns:rdf="http://www.w3.org/1999/02/22-rdf-syntax-ns#"
   xmlns:svg="http://www.w3.org/2000/svg"
   xmlns="http://www.w3.org/2000/svg"
   xmlns:sodipodi="http://sodipodi.sourceforge.net/DTD/sodipodi-0.dtd"
   xmlns:inkscape="http://www.inkscape.org/namespaces/inkscape"
   version="1.1"
   x="0px"
   y="0px"
   width="128"
   height="128"
   viewBox="0 0 128 128"
   enable-background="new 0 0 780 650"
   xml:space="preserve"
   id="svg2"
   inkscape:version="0.48.5 r10040"
   sodipodi:docname="status_mount.svg"><metadata
     id="metadata1456"><rdf:RDF><cc:Work
         rdf:about=""><dc:format>image/svg+xml</dc:format><dc:type
           rdf:resource="http://purl.org/dc/dcmitype/StillImage" /></cc:Work></rdf:RDF></metadata><defs
     id="defs1454"><clipPath
       clipPathUnits="userSpaceOnUse"
       id="clipPath3093"><path
         sodipodi:type="arc"
         style="fill:#ff0000;fill-opacity:1;fill-rule:evenodd;stroke:none"
         id="path3095"
         sodipodi:cx="64.663704"
         sodipodi:cy="63.905186"
         sodipodi:rx="61.629631"
         sodipodi:ry="62.957039"
         d="m 126.29333,63.905186 a 61.629631,62.957039 0 1 1 -123.2592571,0 61.629631,62.957039 0 1 1 123.2592571,0 z" /></clipPath><clipPath
       clipPathUnits="userSpaceOnUse"
       id="clipPath3097"><path
         sodipodi:type="arc"
         style="fill:#ff0000;fill-opacity:1;fill-rule:evenodd;stroke:none"
         id="path3099"
         sodipodi:cx="64.663704"
         sodipodi:cy="63.905186"
         sodipodi:rx="61.629631"
         sodipodi:ry="62.957039"
         d="m 126.29333,63.905186 a 61.629631,62.957039 0 1 1 -123.2592571,0 61.629631,62.957039 0 1 1 123.2592571,0 z"
         transform="matrix(0.12972965,0,0,0.12972965,787.5614,700.50245)" /></clipPath></defs><sodipodi:namedview
     pagecolor="#ffffff"
     bordercolor="#666666"
     borderopacity="1"
     objecttolerance="10"
     gridtolerance="10"
     guidetolerance="10"
     inkscape:pageopacity="0"
     inkscape:pageshadow="2"
     inkscape:window-width="1236"
     inkscape:window-height="848"
     id="namedview1452"
     showgrid="false"
     inkscape:zoom="2.6367188"
     inkscape:cx="6.7318529"
     inkscape:cy="86.755556"
     inkscape:window-x="498"
     inkscape:window-y="39"
     inkscape:window-maximized="0"
     inkscape:current-layer="svg2" /><g
     id="Help"
     transform="matrix(7.7083383,0,0,7.7083383,-6070.7897,-5399.7099)"
     clip-path="url(#clipPath3097)"><path
       d="m 509.778,597.159 c -12.427,0 -22.5,10.074 -22.5,22.5 0,12.428 10.073,22.5 22.5,22.5 12.427,0 22.5,-10.072 22.5,-22.5 -10e-4,-12.426 -10.073,-22.5 -22.5,-22.5 z m -0.559,36.414 c -1.676,0 -3.054,-1.379 -3.054,-3.055 0,-1.676 1.378,-3.053 3.054,-3.053 1.677,0 3.054,1.377 3.054,3.053 0,1.676 -1.377,3.055 -3.054,3.055 z m 2.904,-11.791 c -0.892,1.305 -0.594,3.129 -3.052,3.129 -1.602,0 -2.385,-1.305 -2.385,-2.496 0,-4.432 6.519,-5.436 6.519,-9.086 0,-2.012 -1.34,-3.203 -3.576,-3.203 -4.767,0 -2.905,4.916 -6.518,4.916 -1.304,0 -2.421,-0.783 -2.421,-2.271 0,-3.65 4.172,-6.891 8.714,-6.891 4.769,0 9.46,2.197 9.46,7.449 10e-4,4.842 -5.55,6.703 -6.741,8.453 z"
       id="path695"
       inkscape:connector-curvature="0"
       style="fill:#333333" /></g><style
     id="style8"
     type="text/css">
      .Border { fill: lightGray; stroke: black; stroke-width: 4; }
      .Label { font-size:24; font-family:Arial; fill:black; }
   </style><style
     id="style8-7"
     type="text/css">
      .Border { fill: lightGray; stroke: black; stroke-width: 4; }
      .Label { font-size:24; font-family:Arial; fill:black; }
   </style><style
     id="style8-3"
     type="text/css">
      .Border { fill: lightGray; stroke: black; stroke-width: 4; }
      .Label { font-size:24; font-family:Arial; fill:black; }
   </style><style
     id="style8-6"
     type="text/css">
      .Border { fill: lightGray; stroke: black; stroke-width: 4; }
      .Label { font-size:24; font-family:Arial; fill:black; }
   </style><style
     type="text/css"
     id="style8-1">
      .Border { fill: lightGray; stroke: black; stroke-width: 4; }
      .Label { font-size:24; font-family:Arial; fill:black; }
   </style><style
     type="text/css"
     id="style8-7-0">
      .Border { fill: lightGray; stroke: black; stroke-width: 4; }
      .Label { font-size:24; font-family:Arial; fill:black; }
   </style><style
     type="text/css"
     id="style8-3-2">
      .Border { fill: lightGray; stroke: black; stroke-width: 4; }
      .Label { font-size:24; font-family:Arial; fill:black; }
   </style><style
     type="text/css"
     id="style8-6-7">
      .Border { fill: lightGray; stroke: black; stroke-width: 4; }
      .Label { font-size:24; font-family:Arial; fill:black; }
   </style><path
     style="fill:#333333;fill-opacity:1;fill-rule:evenodd;stroke:none"
     d=""
     id="path7612"
     inkscape:connector-curvature="0"
     clip-path="url(#clipPath3093)" /><g
     id="g3099"
     transform="matrix(1.0448215,0,0,1.0413737,-62.765712,-17.657791)"
     style="fill:#cccccc"><path
       inkscape:connector-curvature="0"
       d="m 122.5,49.218 c -16.642,0 -30.182,13.54 -30.182,30.181 0,16.641 13.541,30.181 30.182,30.181 16.641,0 30.181,-13.54 30.181,-30.181 0,-16.641 -13.539,-30.181 -30.181,-30.181 z m 0,56.156 c -14.347,0 -25.976,-11.629 -25.976,-25.975 0,-14.346 11.628,-25.975 25.976,-25.975 14.345,0 25.975,11.629 25.975,25.975 0,14.346 -11.63,25.975 -25.975,25.975 z m 54.773,-21.113 c 0.141,-1.603 0.227,-3.223 0.227,-4.862 0,-1.639 -0.086,-3.259 -0.227,-4.862 l -10.918,-1.293 c -0.507,-3.644 -1.457,-7.142 -2.794,-10.446 l 8.815,-6.581 c -1.377,-2.959 -3.012,-5.773 -4.873,-8.417 l -10.106,4.344 c -2.228,-2.849 -4.794,-5.416 -7.642,-7.642 l 4.342,-10.107 c -2.644,-1.859 -5.457,-3.495 -8.416,-4.872 l -6.582,8.814 C 135.796,37 132.296,36.05 128.654,35.544 l -1.293,-10.919 c -1.603,-0.14 -3.223,-0.226 -4.862,-0.226 -1.642,0 -3.259,0.086 -4.864,0.226 l -1.291,10.919 C 112.7,36.05 109.201,37 105.898,38.337 L 99.317,29.523 C 96.358,30.9 93.545,32.535 90.9,34.395 l 4.342,10.107 c -2.848,2.228 -5.414,4.793 -7.641,7.642 L 77.495,47.8 c -1.86,2.645 -3.494,5.458 -4.872,8.417 l 8.814,6.581 C 80.1,66.102 79.15,69.6 78.644,73.244 l -10.919,1.292 c -0.14,1.604 -0.225,3.224 -0.225,4.863 0,1.639 0.085,3.259 0.226,4.863 l 10.919,1.292 c 0.507,3.643 1.457,7.142 2.793,10.446 l -8.814,6.581 c 1.378,2.959 3.012,5.773 4.872,8.417 l 10.107,-4.343 c 2.227,2.848 4.793,5.413 7.641,7.641 l -4.342,10.106 c 2.645,1.86 5.458,3.496 8.417,4.873 l 6.581,-8.814 c 3.303,1.336 6.803,2.286 10.446,2.793 l 1.291,10.919 c 1.605,0.14 3.223,0.226 4.864,0.226 1.639,0 3.259,-0.086 4.862,-0.226 l 1.293,-10.919 c 3.642,-0.507 7.142,-1.457 10.445,-2.793 l 6.582,8.814 c 2.958,-1.377 5.772,-3.012 8.416,-4.871 l -4.342,-10.108 c 2.848,-2.228 5.414,-4.793 7.642,-7.641 l 10.106,4.343 c 1.86,-2.645 3.496,-5.458 4.873,-8.417 L 163.561,96 c 1.337,-3.304 2.287,-6.803 2.794,-10.446 l 10.918,-1.293 z M 122.5,111.714 c -17.819,0 -32.315,-14.497 -32.315,-32.314 0,-17.817 14.496,-32.314 32.315,-32.314 17.817,0 32.314,14.497 32.314,32.314 0,17.817 -14.497,32.314 -32.314,32.314 z"
       id="path3101"
       style="fill:#cccccc" /></g></svg>