<?xml version="1.0" encoding="UTF-8" standalone="no"?>
<!-- Generator: Adobe Illustrator 14.0.0, SVG Export Plug-In . SVG Version: 6.00 Build 43363)  -->

<svg
	xmlns:dc="http://purl.org/dc/elements/1.1/"
	xmlns:cc="http://creativecommons.org/ns#"
	xmlns:rdf="http://www.w3.org/1999/02/22-rdf-syntax-ns#"
	xmlns="http://www.w3.org/2000/svg"
	xmlns:sodipodi="http://sodipodi.sourceforge.net/DTD/sodipodi-0.dtd"
	xmlns:inkscape="http://www.inkscape.org/namespaces/inkscape"
	version="1.1"
	x="0px"
	y="0px"
	width="136.53334"
	height="136.53334"
	viewBox="0 0 128 128"
	enable-background="new 0 0 780 650"
	xml:space="preserve"
	id="svg2"
	inkscape:version="0.92.1 r15371"
	sodipodi:docname="toolbar_expand_reset.svg"><metadata
     id="metadata1456"><rdf:RDF><cc:Work
         rdf:about=""><dc:format>image/svg+xml</dc:format><dc:type
	rdf:resource="http://purl.org/dc/dcmitype/StillImage"/></cc:Work></rdf:RDF></metadata>
	<defs
		id="defs1454"><clipPath
       clipPathUnits="userSpaceOnUse"
       id="clipPath9180"><ellipse
         style="fill:#a9a9a9;fill-opacity:1;fill-rule:evenodd;stroke:none"
         id="path9182"
         transform="matrix(1.3993902,0,0,1.1907217,3.486295,1.0575123)"
         cx="43.980995"
         cy="52.105968"
         rx="43.980995"
         ry="52.026299" /></clipPath>
		<clipPath
			clipPathUnits="userSpaceOnUse"
			id="clipPath9184"><ellipse
         style="fill:#a9a9a9;fill-opacity:1;fill-rule:evenodd;stroke:none"
         id="path9186"
         transform="matrix(0.1815424,0,0,0.1544719,788.01368,700.63965)"
         cx="43.980995"
         cy="52.105968"
         rx="43.980995"
         ry="52.026299" /></clipPath>
		<clipPath
			id="clipPath9180-61"
			clipPathUnits="userSpaceOnUse"><ellipse
         ry="52.026299"
         rx="43.980995"
         cy="52.105968"
         cx="43.980995"
         transform="matrix(1.3993902,0,0,1.1907217,3.486295,1.0575123)"
         id="path9182-2"
         style="fill:#a9a9a9;fill-opacity:1;fill-rule:evenodd;stroke:none" /></clipPath>
		<clipPath
			id="clipPath9184-93"
			clipPathUnits="userSpaceOnUse"><ellipse
         ry="52.026299"
         rx="43.980995"
         cy="52.105968"
         cx="43.980995"
         transform="matrix(0.1815424,0,0,0.1544719,788.01368,700.63965)"
         id="path9186-1"
         style="fill:#a9a9a9;fill-opacity:1;fill-rule:evenodd;stroke:none" /></clipPath>
		<clipPath
			clipPathUnits="userSpaceOnUse"
			id="clipPath9184-1"><ellipse
         ry="52.026299"
         rx="43.980995"
         cy="52.105968"
         cx="43.980995"
         style="fill:#a9a9a9;fill-opacity:1;fill-rule:evenodd;stroke:none"
         id="path9186-3"
         transform="matrix(0.1815424,0,0,0.1544719,788.01368,700.63965)" /></clipPath>
		<clipPath
			clipPathUnits="userSpaceOnUse"
			id="clipPath9180-6"><ellipse
         ry="52.026299"
         rx="43.980995"
         cy="52.105968"
         cx="43.980995"
         style="fill:#a9a9a9;fill-opacity:1;fill-rule:evenodd;stroke:none"
         id="path9182-5"
         transform="matrix(1.3993902,0,0,1.1907217,3.486295,1.0575123)" /></clipPath>
		<clipPath
			clipPathUnits="userSpaceOnUse"
			id="clipPath9184-9"><ellipse
         ry="52.026299"
         rx="43.980995"
         cy="52.105968"
         cx="43.980995"
         style="fill:#a9a9a9;fill-opacity:1;fill-rule:evenodd;stroke:none"
         id="path9186-6"
         transform="matrix(0.1815424,0,0,0.1544719,788.01368,700.63965)" /></clipPath>
		<clipPath
			clipPathUnits="userSpaceOnUse"
			id="clipPath9180-9"><ellipse
         ry="52.026299"
         rx="43.980995"
         cy="52.105968"
         cx="43.980995"
         style="fill:#a9a9a9;fill-opacity:1;fill-rule:evenodd;stroke:none"
         id="path9182-57"
         transform="matrix(1.3993902,0,0,1.1907217,3.486295,1.0575123)" /></clipPath>
		<clipPath
			clipPathUnits="userSpaceOnUse"
			id="clipPath9180-5"><ellipse
         style="fill:#a9a9a9;fill-opacity:1;fill-rule:evenodd;stroke:none"
         id="path9182-9"
         transform="matrix(1.3993902,0,0,1.1907217,3.486295,1.0575123)"
         cx="43.980995"
         cy="52.105968"
         rx="43.980995"
         ry="52.026299" /></clipPath>
		<clipPath
			clipPathUnits="userSpaceOnUse"
			id="clipPath9184-49"><ellipse
         style="fill:#a9a9a9;fill-opacity:1;fill-rule:evenodd;stroke:none"
         id="path9186-0"
         transform="matrix(0.1815424,0,0,0.1544719,788.01368,700.63965)"
         cx="43.980995"
         cy="52.105968"
         rx="43.980995"
         ry="52.026299" /></clipPath>
		<clipPath
			id="clipPath9184-1-9"
			clipPathUnits="userSpaceOnUse"><ellipse
         transform="matrix(0.1815424,0,0,0.1544719,788.01368,700.63965)"
         id="path9186-3-1"
         style="fill:#a9a9a9;fill-opacity:1;fill-rule:evenodd;stroke:none"
         cx="43.980995"
         cy="52.105968"
         rx="43.980995"
         ry="52.026299" /></clipPath>
		<clipPath
			id="clipPath9180-6-77"
			clipPathUnits="userSpaceOnUse"><ellipse
         transform="matrix(1.3993902,0,0,1.1907217,3.486295,1.0575123)"
         id="path9182-5-1"
         style="fill:#a9a9a9;fill-opacity:1;fill-rule:evenodd;stroke:none"
         cx="43.980995"
         cy="52.105968"
         rx="43.980995"
         ry="52.026299" /></clipPath>
		<clipPath
			id="clipPath9184-9-1"
			clipPathUnits="userSpaceOnUse"><ellipse
         transform="matrix(0.1815424,0,0,0.1544719,788.01368,700.63965)"
         id="path9186-6-5"
         style="fill:#a9a9a9;fill-opacity:1;fill-rule:evenodd;stroke:none"
         cx="43.980995"
         cy="52.105968"
         rx="43.980995"
         ry="52.026299" /></clipPath>
		<clipPath
			id="clipPath9180-9-9"
			clipPathUnits="userSpaceOnUse"><ellipse
         transform="matrix(1.3993902,0,0,1.1907217,3.486295,1.0575123)"
         id="path9182-57-7"
         style="fill:#a9a9a9;fill-opacity:1;fill-rule:evenodd;stroke:none"
         cx="43.980995"
         cy="52.105968"
         rx="43.980995"
         ry="52.026299" /></clipPath>
		<clipPath
			id="clipPath9180-3"
			clipPathUnits="userSpaceOnUse"><ellipse
         ry="52.026299"
         rx="43.980995"
         cy="52.105968"
         cx="43.980995"
         transform="matrix(1.3993902,0,0,1.1907217,3.486295,1.0575123)"
         id="path9182-0"
         style="fill:#a9a9a9;fill-opacity:1;fill-rule:evenodd;stroke:none" /></clipPath>
		<clipPath
			id="clipPath9184-4"
			clipPathUnits="userSpaceOnUse"><ellipse
         ry="52.026299"
         rx="43.980995"
         cy="52.105968"
         cx="43.980995"
         transform="matrix(0.1815424,0,0,0.1544719,788.01368,700.63965)"
         id="path9186-4"
         style="fill:#a9a9a9;fill-opacity:1;fill-rule:evenodd;stroke:none" /></clipPath>
		<clipPath
			clipPathUnits="userSpaceOnUse"
			id="clipPath9184-1-4"><ellipse
         ry="52.026299"
         rx="43.980995"
         cy="52.105968"
         cx="43.980995"
         style="fill:#a9a9a9;fill-opacity:1;fill-rule:evenodd;stroke:none"
         id="path9186-3-4"
         transform="matrix(0.1815424,0,0,0.1544719,788.01368,700.63965)" /></clipPath>
		<clipPath
			clipPathUnits="userSpaceOnUse"
			id="clipPath9180-6-7"><ellipse
         ry="52.026299"
         rx="43.980995"
         cy="52.105968"
         cx="43.980995"
         style="fill:#a9a9a9;fill-opacity:1;fill-rule:evenodd;stroke:none"
         id="path9182-5-6"
         transform="matrix(1.3993902,0,0,1.1907217,3.486295,1.0575123)" /></clipPath>
		<clipPath
			clipPathUnits="userSpaceOnUse"
			id="clipPath9184-9-3"><ellipse
         ry="52.026299"
         rx="43.980995"
         cy="52.105968"
         cx="43.980995"
         style="fill:#a9a9a9;fill-opacity:1;fill-rule:evenodd;stroke:none"
         id="path9186-6-1"
         transform="matrix(0.1815424,0,0,0.1544719,788.01368,700.63965)" /></clipPath>
		<clipPath
			clipPathUnits="userSpaceOnUse"
			id="clipPath9180-9-7"><ellipse
         ry="52.026299"
         rx="43.980995"
         cy="52.105968"
         cx="43.980995"
         style="fill:#a9a9a9;fill-opacity:1;fill-rule:evenodd;stroke:none"
         id="path9182-57-5"
         transform="matrix(1.3993902,0,0,1.1907217,3.486295,1.0575123)" /></clipPath></defs>
	<sodipodi:namedview
		pagecolor="#ffffff"
		bordercolor="#666666"
		borderopacity="1"
		objecttolerance="10"
		gridtolerance="10"
		guidetolerance="10"
		inkscape:pageopacity="0"
		inkscape:pageshadow="2"
		inkscape:window-width="1236"
		inkscape:window-height="848"
		id="namedview1452"
		showgrid="false"
		inkscape:zoom="1.3183594"
		inkscape:cx="-82.181156"
		inkscape:cy="57.716227"
		inkscape:window-x="498"
		inkscape:window-y="39"
		inkscape:window-maximized="0"
		inkscape:current-layer="svg2"/>
	<g
		id="Help"
		transform="matrix(7.7083383,0,0,7.7083383,-6070.7897,-5399.7099)"
		clip-path="url(#clipPath9184)"><path
       d="m 509.778,597.159 c -12.427,0 -22.5,10.074 -22.5,22.5 0,12.428 10.073,22.5 22.5,22.5 12.427,0 22.5,-10.072 22.5,-22.5 -10e-4,-12.426 -10.073,-22.5 -22.5,-22.5 z m -0.559,36.414 c -1.676,0 -3.054,-1.379 -3.054,-3.055 0,-1.676 1.378,-3.053 3.054,-3.053 1.677,0 3.054,1.377 3.054,3.053 0,1.676 -1.377,3.055 -3.054,3.055 z m 2.904,-11.791 c -0.892,1.305 -0.594,3.129 -3.052,3.129 -1.602,0 -2.385,-1.305 -2.385,-2.496 0,-4.432 6.519,-5.436 6.519,-9.086 0,-2.012 -1.34,-3.203 -3.576,-3.203 -4.767,0 -2.905,4.916 -6.518,4.916 -1.304,0 -2.421,-0.783 -2.421,-2.271 0,-3.65 4.172,-6.891 8.714,-6.891 4.769,0 9.46,2.197 9.46,7.449 10e-4,4.842 -5.55,6.703 -6.741,8.453 z"
       id="path695"
       inkscape:connector-curvature="0"
       style="fill:#333333" /></g>
	<style
		id="style8"
		type="text/css">
      .Border { fill: lightGray; stroke: black; stroke-width: 4; }
      .Label { font-size:24; font-family:Arial; fill:black; }
   </style>
	<style
		id="style8-7"
		type="text/css">
      .Border { fill: lightGray; stroke: black; stroke-width: 4; }
      .Label { font-size:24; font-family:Arial; fill:black; }
   </style>
	<style
		id="style8-3"
		type="text/css">
      .Border { fill: lightGray; stroke: black; stroke-width: 4; }
      .Label { font-size:24; font-family:Arial; fill:black; }
   </style>
	<style
		id="style8-6"
		type="text/css">
      .Border { fill: lightGray; stroke: black; stroke-width: 4; }
      .Label { font-size:24; font-family:Arial; fill:black; }
   </style>
	<style
		type="text/css"
		id="style8-1">
      .Border { fill: lightGray; stroke: black; stroke-width: 4; }
      .Label { font-size:24; font-family:Arial; fill:black; }
   </style>
	<style
		type="text/css"
		id="style8-7-0">
      .Border { fill: lightGray; stroke: black; stroke-width: 4; }
      .Label { font-size:24; font-family:Arial; fill:black; }
   </style>
	<style
		type="text/css"
		id="style8-3-2">
      .Border { fill: lightGray; stroke: black; stroke-width: 4; }
      .Label { font-size:24; font-family:Arial; fill:black; }
   </style>
	<style
		type="text/css"
		id="style8-6-7">
      .Border { fill: lightGray; stroke: black; stroke-width: 4; }
      .Label { font-size:24; font-family:Arial; fill:black; }
   </style>
	<path
		style="fill:#333333;fill-opacity:1;fill-rule:evenodd;stroke:none"
		d=""
		id="path7612"
		inkscape:connector-curvature="0"
		clip-path="url(#clipPath9180)"/>
	<path
		style="fill:#333333;fill-opacity:1;fill-rule:evenodd;stroke:none"
		d=""
		id="path4021"
		inkscape:connector-curvature="0"/>
	<path
		style="fill:#333333;fill-opacity:1;fill-rule:evenodd;stroke:none"
		d=""
		id="path4025"
		inkscape:connector-curvature="0"/>
	<g
		id="g9399"
		transform="translate(-8.3243311,-14.843599)"><path
       inkscape:connector-curvature="0"
       id="path4015-8"
       d="M 54.695198,125.91514 C 43.195991,122.66275 37.904819,109.57846 44.14749,99.832233 c 9.212871,-14.383418 31.775574,-6.410231 30.477159,10.769957 -0.76466,10.11773 -10.863384,17.87717 -19.929451,15.31295 z"
       style="fill:#c0c0c0;fill-opacity:1;fill-rule:evenodd;stroke:none;stroke-width:1.04750836" />
		<path
			style="fill:#c0c0c0;fill-opacity:1;fill-rule:evenodd;stroke:none;stroke-width:1.05521846"
			d="M 100.23564,78.11172 C 88.736442,74.811269 83.445268,61.533661 89.687942,51.643414 98.900813,37.047487 121.46351,45.138472 120.16509,62.572521 119.40043,72.839742 109.30171,80.713826 100.23564,78.11172 Z"
			id="path4027-4"
			inkscape:connector-curvature="0"/>
		<path
			inkscape:connector-curvature="0"
			id="path4037-5"
			d="m 48.458678,118.88174 -2.474521,-2.55128 30.798987,-31.992274 30.798986,-31.992279 2.70214,2.70026 2.70215,2.700262 -20.07427,20.79173 C 70.260029,101.99987 51.310343,121.433 51.084443,121.433 c -0.08318,0 -1.264778,-1.14806 -2.625765,-2.55126 z"
			style="fill:#c0c0c0;fill-opacity:1;fill-rule:evenodd;stroke:none"/></g>
	<style
		type="text/css"
		id="style8-8">
      .Border { fill: lightGray; stroke: black; stroke-width: 4; }
      .Label { font-size:24; font-family:Arial; fill:black; }
   </style>
	<style
		type="text/css"
		id="style8-7-4">
      .Border { fill: lightGray; stroke: black; stroke-width: 4; }
      .Label { font-size:24; font-family:Arial; fill:black; }
   </style>
	<style
		type="text/css"
		id="style8-3-5">
      .Border { fill: lightGray; stroke: black; stroke-width: 4; }
      .Label { font-size:24; font-family:Arial; fill:black; }
   </style>
	<style
		type="text/css"
		id="style8-6-0">
      .Border { fill: lightGray; stroke: black; stroke-width: 4; }
      .Label { font-size:24; font-family:Arial; fill:black; }
   </style>
	<style
		id="style8-1-3"
		type="text/css">
      .Border { fill: lightGray; stroke: black; stroke-width: 4; }
      .Label { font-size:24; font-family:Arial; fill:black; }
   </style>
	<style
		id="style8-7-0-6"
		type="text/css">
      .Border { fill: lightGray; stroke: black; stroke-width: 4; }
      .Label { font-size:24; font-family:Arial; fill:black; }
   </style>
	<style
		id="style8-3-2-1"
		type="text/css">
      .Border { fill: lightGray; stroke: black; stroke-width: 4; }
      .Label { font-size:24; font-family:Arial; fill:black; }
   </style>
	<style
		id="style8-6-7-0"
		type="text/css">
      .Border { fill: lightGray; stroke: black; stroke-width: 4; }
      .Label { font-size:24; font-family:Arial; fill:black; }
   </style>
	<style
		id="style8-5"
		type="text/css">
      .Border { fill: lightGray; stroke: black; stroke-width: 4; }
      .Label { font-size:24; font-family:Arial; fill:black; }
   </style>
	<style
		id="style8-7-2"
		type="text/css">
      .Border { fill: lightGray; stroke: black; stroke-width: 4; }
      .Label { font-size:24; font-family:Arial; fill:black; }
   </style>
	<style
		id="style8-3-7"
		type="text/css">
      .Border { fill: lightGray; stroke: black; stroke-width: 4; }
      .Label { font-size:24; font-family:Arial; fill:black; }
   </style>
	<style
		id="style8-6-3"
		type="text/css">
      .Border { fill: lightGray; stroke: black; stroke-width: 4; }
      .Label { font-size:24; font-family:Arial; fill:black; }
   </style>
	<style
		type="text/css"
		id="style8-1-4">
      .Border { fill: lightGray; stroke: black; stroke-width: 4; }
      .Label { font-size:24; font-family:Arial; fill:black; }
   </style>
	<style
		type="text/css"
		id="style8-7-0-5">
      .Border { fill: lightGray; stroke: black; stroke-width: 4; }
      .Label { font-size:24; font-family:Arial; fill:black; }
   </style>
	<style
		type="text/css"
		id="style8-3-2-7">
      .Border { fill: lightGray; stroke: black; stroke-width: 4; }
      .Label { font-size:24; font-family:Arial; fill:black; }
   </style>
	<style
		type="text/css"
		id="style8-6-7-1">
      .Border { fill: lightGray; stroke: black; stroke-width: 4; }
      .Label { font-size:24; font-family:Arial; fill:black; }
   </style>
	<style
		id="style8-59"
		type="text/css">
      .Border { fill: lightGray; stroke: black; stroke-width: 4; }
      .Label { font-size:24; font-family:Arial; fill:black; }
   </style>
	<style
		id="style8-7-7"
		type="text/css">
      .Border { fill: lightGray; stroke: black; stroke-width: 4; }
      .Label { font-size:24; font-family:Arial; fill:black; }
   </style>
	<style
		id="style8-3-1"
		type="text/css">
      .Border { fill: lightGray; stroke: black; stroke-width: 4; }
      .Label { font-size:24; font-family:Arial; fill:black; }
   </style>
	<style
		id="style8-6-74"
		type="text/css">
      .Border { fill: lightGray; stroke: black; stroke-width: 4; }
      .Label { font-size:24; font-family:Arial; fill:black; }
   </style>
	<style
		type="text/css"
		id="style8-1-2">
      .Border { fill: lightGray; stroke: black; stroke-width: 4; }
      .Label { font-size:24; font-family:Arial; fill:black; }
   </style>
	<style
		type="text/css"
		id="style8-7-0-0">
      .Border { fill: lightGray; stroke: black; stroke-width: 4; }
      .Label { font-size:24; font-family:Arial; fill:black; }
   </style>
	<style
		type="text/css"
		id="style8-3-2-0">
      .Border { fill: lightGray; stroke: black; stroke-width: 4; }
      .Label { font-size:24; font-family:Arial; fill:black; }
   </style>
	<style
		type="text/css"
		id="style8-6-7-2">
      .Border { fill: lightGray; stroke: black; stroke-width: 4; }
      .Label { font-size:24; font-family:Arial; fill:black; }
   </style>
	<style
		id="style8-65"
		type="text/css">
      .Border { fill: lightGray; stroke: black; stroke-width: 4; }
      .Label { font-size:24; font-family:Arial; fill:black; }
   </style>
	<style
		id="style8-7-6"
		type="text/css">
      .Border { fill: lightGray; stroke: black; stroke-width: 4; }
      .Label { font-size:24; font-family:Arial; fill:black; }
   </style>
	<style
		id="style8-3-3"
		type="text/css">
      .Border { fill: lightGray; stroke: black; stroke-width: 4; }
      .Label { font-size:24; font-family:Arial; fill:black; }
   </style>
	<style
		id="style8-6-9"
		type="text/css">
      .Border { fill: lightGray; stroke: black; stroke-width: 4; }
      .Label { font-size:24; font-family:Arial; fill:black; }
   </style>
	<style
		type="text/css"
		id="style8-1-48">
      .Border { fill: lightGray; stroke: black; stroke-width: 4; }
      .Label { font-size:24; font-family:Arial; fill:black; }
   </style>
	<style
		type="text/css"
		id="style8-7-0-1">
      .Border { fill: lightGray; stroke: black; stroke-width: 4; }
      .Label { font-size:24; font-family:Arial; fill:black; }
   </style>
	<style
		type="text/css"
		id="style8-3-2-2">
      .Border { fill: lightGray; stroke: black; stroke-width: 4; }
      .Label { font-size:24; font-family:Arial; fill:black; }
   </style>
	<style
		type="text/css"
		id="style8-6-7-9">
      .Border { fill: lightGray; stroke: black; stroke-width: 4; }
      .Label { font-size:24; font-family:Arial; fill:black; }
   </style>
	<style
		type="text/css"
		id="style8-5-9">
      .Border { fill: lightGray; stroke: black; stroke-width: 4; }
      .Label { font-size:24; font-family:Arial; fill:black; }
   </style>
	<style
		type="text/css"
		id="style8-7-2-0">
      .Border { fill: lightGray; stroke: black; stroke-width: 4; }
      .Label { font-size:24; font-family:Arial; fill:black; }
   </style>
	<style
		type="text/css"
		id="style8-3-7-8">
      .Border { fill: lightGray; stroke: black; stroke-width: 4; }
      .Label { font-size:24; font-family:Arial; fill:black; }
   </style>
	<style
		type="text/css"
		id="style8-6-3-85">
      .Border { fill: lightGray; stroke: black; stroke-width: 4; }
      .Label { font-size:24; font-family:Arial; fill:black; }
   </style>
	<style
		id="style8-1-4-0"
		type="text/css">
      .Border { fill: lightGray; stroke: black; stroke-width: 4; }
      .Label { font-size:24; font-family:Arial; fill:black; }
   </style>
	<style
		id="style8-7-0-5-9"
		type="text/css">
      .Border { fill: lightGray; stroke: black; stroke-width: 4; }
      .Label { font-size:24; font-family:Arial; fill:black; }
   </style>
	<style
		id="style8-3-2-7-6"
		type="text/css">
      .Border { fill: lightGray; stroke: black; stroke-width: 4; }
      .Label { font-size:24; font-family:Arial; fill:black; }
   </style>
	<style
		id="style8-6-7-1-38"
		type="text/css">
      .Border { fill: lightGray; stroke: black; stroke-width: 4; }
      .Label { font-size:24; font-family:Arial; fill:black; }
   </style>
	<style
		type="text/css"
		id="style8-59-1">
      .Border { fill: lightGray; stroke: black; stroke-width: 4; }
      .Label { font-size:24; font-family:Arial; fill:black; }
   </style>
	<style
		type="text/css"
		id="style8-7-7-5">
      .Border { fill: lightGray; stroke: black; stroke-width: 4; }
      .Label { font-size:24; font-family:Arial; fill:black; }
   </style>
	<style
		type="text/css"
		id="style8-3-1-9">
      .Border { fill: lightGray; stroke: black; stroke-width: 4; }
      .Label { font-size:24; font-family:Arial; fill:black; }
   </style>
	<style
		type="text/css"
		id="style8-6-74-84">
      .Border { fill: lightGray; stroke: black; stroke-width: 4; }
      .Label { font-size:24; font-family:Arial; fill:black; }
   </style>
	<style
		id="style8-1-2-81"
		type="text/css">
      .Border { fill: lightGray; stroke: black; stroke-width: 4; }
      .Label { font-size:24; font-family:Arial; fill:black; }
   </style>
	<style
		id="style8-7-0-0-0"
		type="text/css">
      .Border { fill: lightGray; stroke: black; stroke-width: 4; }
      .Label { font-size:24; font-family:Arial; fill:black; }
   </style>
	<style
		id="style8-3-2-0-3"
		type="text/css">
      .Border { fill: lightGray; stroke: black; stroke-width: 4; }
      .Label { font-size:24; font-family:Arial; fill:black; }
   </style>
	<style
		id="style8-6-7-2-0"
		type="text/css">
      .Border { fill: lightGray; stroke: black; stroke-width: 4; }
      .Label { font-size:24; font-family:Arial; fill:black; }
   </style>
	<style
		type="text/css"
		id="style8-78">
      .Border { fill: lightGray; stroke: black; stroke-width: 4; }
      .Label { font-size:24; font-family:Arial; fill:black; }
   </style>
	<style
		type="text/css"
		id="style8-7-5">
      .Border { fill: lightGray; stroke: black; stroke-width: 4; }
      .Label { font-size:24; font-family:Arial; fill:black; }
   </style>
	<style
		type="text/css"
		id="style8-3-74">
      .Border { fill: lightGray; stroke: black; stroke-width: 4; }
      .Label { font-size:24; font-family:Arial; fill:black; }
   </style>
	<style
		type="text/css"
		id="style8-6-1">
      .Border { fill: lightGray; stroke: black; stroke-width: 4; }
      .Label { font-size:24; font-family:Arial; fill:black; }
   </style>
	<style
		id="style8-1-8"
		type="text/css">
      .Border { fill: lightGray; stroke: black; stroke-width: 4; }
      .Label { font-size:24; font-family:Arial; fill:black; }
   </style>
	<style
		id="style8-7-0-59"
		type="text/css">
      .Border { fill: lightGray; stroke: black; stroke-width: 4; }
      .Label { font-size:24; font-family:Arial; fill:black; }
   </style>
	<style
		id="style8-3-2-75"
		type="text/css">
      .Border { fill: lightGray; stroke: black; stroke-width: 4; }
      .Label { font-size:24; font-family:Arial; fill:black; }
   </style>
	<style
		id="style8-6-7-3"
		type="text/css">
      .Border { fill: lightGray; stroke: black; stroke-width: 4; }
      .Label { font-size:24; font-family:Arial; fill:black; }
   </style>
	<style
		id="style8-5-8"
		type="text/css">
      .Border { fill: lightGray; stroke: black; stroke-width: 4; }
      .Label { font-size:24; font-family:Arial; fill:black; }
   </style>
	<style
		id="style8-7-2-3"
		type="text/css">
      .Border { fill: lightGray; stroke: black; stroke-width: 4; }
      .Label { font-size:24; font-family:Arial; fill:black; }
   </style>
	<style
		id="style8-3-7-1"
		type="text/css">
      .Border { fill: lightGray; stroke: black; stroke-width: 4; }
      .Label { font-size:24; font-family:Arial; fill:black; }
   </style>
	<style
		id="style8-6-3-8"
		type="text/css">
      .Border { fill: lightGray; stroke: black; stroke-width: 4; }
      .Label { font-size:24; font-family:Arial; fill:black; }
   </style>
	<style
		type="text/css"
		id="style8-1-4-9">
      .Border { fill: lightGray; stroke: black; stroke-width: 4; }
      .Label { font-size:24; font-family:Arial; fill:black; }
   </style>
	<style
		type="text/css"
		id="style8-7-0-5-6">
      .Border { fill: lightGray; stroke: black; stroke-width: 4; }
      .Label { font-size:24; font-family:Arial; fill:black; }
   </style>
	<style
		type="text/css"
		id="style8-3-2-7-4">
      .Border { fill: lightGray; stroke: black; stroke-width: 4; }
      .Label { font-size:24; font-family:Arial; fill:black; }
   </style>
	<style
		type="text/css"
		id="style8-6-7-1-3">
      .Border { fill: lightGray; stroke: black; stroke-width: 4; }
      .Label { font-size:24; font-family:Arial; fill:black; }
   </style>
	<style
		id="style8-59-6"
		type="text/css">
      .Border { fill: lightGray; stroke: black; stroke-width: 4; }
      .Label { font-size:24; font-family:Arial; fill:black; }
   </style>
	<style
		id="style8-7-7-0"
		type="text/css">
      .Border { fill: lightGray; stroke: black; stroke-width: 4; }
      .Label { font-size:24; font-family:Arial; fill:black; }
   </style>
	<style
		id="style8-3-1-4"
		type="text/css">
      .Border { fill: lightGray; stroke: black; stroke-width: 4; }
      .Label { font-size:24; font-family:Arial; fill:black; }
   </style>
	<style
		id="style8-6-74-8"
		type="text/css">
      .Border { fill: lightGray; stroke: black; stroke-width: 4; }
      .Label { font-size:24; font-family:Arial; fill:black; }
   </style>
	<style
		type="text/css"
		id="style8-1-2-8">
      .Border { fill: lightGray; stroke: black; stroke-width: 4; }
      .Label { font-size:24; font-family:Arial; fill:black; }
   </style>
	<style
		type="text/css"
		id="style8-7-0-0-8">
      .Border { fill: lightGray; stroke: black; stroke-width: 4; }
      .Label { font-size:24; font-family:Arial; fill:black; }
   </style>
	<style
		type="text/css"
		id="style8-3-2-0-9">
      .Border { fill: lightGray; stroke: black; stroke-width: 4; }
      .Label { font-size:24; font-family:Arial; fill:black; }
   </style>
	<style
		type="text/css"
		id="style8-6-7-2-7">
      .Border { fill: lightGray; stroke: black; stroke-width: 4; }
      .Label { font-size:24; font-family:Arial; fill:black; }
   </style>
	<g
		id="Help-4"
		transform="matrix(7.7083383,0,0,7.7083383,-6421.8949,-5300.7582)"
		clip-path="url(#clipPath9184-93)"><path
       d="m 509.778,597.159 c -12.427,0 -22.5,10.074 -22.5,22.5 0,12.428 10.073,22.5 22.5,22.5 12.427,0 22.5,-10.072 22.5,-22.5 -10e-4,-12.426 -10.073,-22.5 -22.5,-22.5 z m -0.559,36.414 c -1.676,0 -3.054,-1.379 -3.054,-3.055 0,-1.676 1.378,-3.053 3.054,-3.053 1.677,0 3.054,1.377 3.054,3.053 0,1.676 -1.377,3.055 -3.054,3.055 z m 2.904,-11.791 c -0.892,1.305 -0.594,3.129 -3.052,3.129 -1.602,0 -2.385,-1.305 -2.385,-2.496 0,-4.432 6.519,-5.436 6.519,-9.086 0,-2.012 -1.34,-3.203 -3.576,-3.203 -4.767,0 -2.905,4.916 -6.518,4.916 -1.304,0 -2.421,-0.783 -2.421,-2.271 0,-3.65 4.172,-6.891 8.714,-6.891 4.769,0 9.46,2.197 9.46,7.449 10e-4,4.842 -5.55,6.703 -6.741,8.453 z"
       id="path695-7"
       inkscape:connector-curvature="0"
       style="fill:#333333" /></g>
	<path
		style="fill:#333333;fill-opacity:1;fill-rule:evenodd;stroke:none"
		d=""
		id="path7612-63"
		inkscape:connector-curvature="0"
		clip-path="url(#clipPath9180-61)"
		transform="translate(-351.10516,98.951672)"/>
	<g
		id="Help-8"
		transform="matrix(7.7083383,0,0,7.7083383,-6319.4632,-5194.6056)"
		clip-path="url(#clipPath9184-1)"><path
       d="m 509.778,597.159 c -12.427,0 -22.5,10.074 -22.5,22.5 0,12.428 10.073,22.5 22.5,22.5 12.427,0 22.5,-10.072 22.5,-22.5 -10e-4,-12.426 -10.073,-22.5 -22.5,-22.5 z m -0.559,36.414 c -1.676,0 -3.054,-1.379 -3.054,-3.055 0,-1.676 1.378,-3.053 3.054,-3.053 1.677,0 3.054,1.377 3.054,3.053 0,1.676 -1.377,3.055 -3.054,3.055 z m 2.904,-11.791 c -0.892,1.305 -0.594,3.129 -3.052,3.129 -1.602,0 -2.385,-1.305 -2.385,-2.496 0,-4.432 6.519,-5.436 6.519,-9.086 0,-2.012 -1.34,-3.203 -3.576,-3.203 -4.767,0 -2.905,4.916 -6.518,4.916 -1.304,0 -2.421,-0.783 -2.421,-2.271 0,-3.65 4.172,-6.891 8.714,-6.891 4.769,0 9.46,2.197 9.46,7.449 10e-4,4.842 -5.55,6.703 -6.741,8.453 z"
       id="path695-4"
       inkscape:connector-curvature="0"
       style="fill:#333333" /></g>
	<path
		style="fill:#333333;fill-opacity:1;fill-rule:evenodd;stroke:none"
		d=""
		id="path7612-5"
		inkscape:connector-curvature="0"
		clip-path="url(#clipPath9180-6)"
		transform="translate(-248.67351,205.10426)"/>
	<g
		id="Help-6"
		transform="matrix(7.7083383,0,0,7.7083383,-6190.7498,-5189.5707)"
		clip-path="url(#clipPath9184-9)"><path
       d="m 509.778,597.159 c -12.427,0 -22.5,10.074 -22.5,22.5 0,12.428 10.073,22.5 22.5,22.5 12.427,0 22.5,-10.072 22.5,-22.5 -10e-4,-12.426 -10.073,-22.5 -22.5,-22.5 z m -0.559,36.414 c -1.676,0 -3.054,-1.379 -3.054,-3.055 0,-1.676 1.378,-3.053 3.054,-3.053 1.677,0 3.054,1.377 3.054,3.053 0,1.676 -1.377,3.055 -3.054,3.055 z m 2.904,-11.791 c -0.892,1.305 -0.594,3.129 -3.052,3.129 -1.602,0 -2.385,-1.305 -2.385,-2.496 0,-4.432 6.519,-5.436 6.519,-9.086 0,-2.012 -1.34,-3.203 -3.576,-3.203 -4.767,0 -2.905,4.916 -6.518,4.916 -1.304,0 -2.421,-0.783 -2.421,-2.271 0,-3.65 4.172,-6.891 8.714,-6.891 4.769,0 9.46,2.197 9.46,7.449 10e-4,4.842 -5.55,6.703 -6.741,8.453 z"
       id="path695-0"
       inkscape:connector-curvature="0"
       style="fill:#333333" /></g>
	<path
		style="fill:#333333;fill-opacity:1;fill-rule:evenodd;stroke:none"
		d=""
		id="path7612-6"
		inkscape:connector-curvature="0"
		clip-path="url(#clipPath9180-9)"
		transform="translate(-119.96002,210.13915)"/>
	<g
		id="Help-67"
		transform="matrix(7.7083383,0,0,7.7083383,-6427.5297,-5302.1735)"
		clip-path="url(#clipPath9184-49)"><path
       d="m 509.778,597.159 c -12.427,0 -22.5,10.074 -22.5,22.5 0,12.428 10.073,22.5 22.5,22.5 12.427,0 22.5,-10.072 22.5,-22.5 -10e-4,-12.426 -10.073,-22.5 -22.5,-22.5 z m -0.559,36.414 c -1.676,0 -3.054,-1.379 -3.054,-3.055 0,-1.676 1.378,-3.053 3.054,-3.053 1.677,0 3.054,1.377 3.054,3.053 0,1.676 -1.377,3.055 -3.054,3.055 z m 2.904,-11.791 c -0.892,1.305 -0.594,3.129 -3.052,3.129 -1.602,0 -2.385,-1.305 -2.385,-2.496 0,-4.432 6.519,-5.436 6.519,-9.086 0,-2.012 -1.34,-3.203 -3.576,-3.203 -4.767,0 -2.905,4.916 -6.518,4.916 -1.304,0 -2.421,-0.783 -2.421,-2.271 0,-3.65 4.172,-6.891 8.714,-6.891 4.769,0 9.46,2.197 9.46,7.449 10e-4,4.842 -5.55,6.703 -6.741,8.453 z"
       id="path695-3"
       inkscape:connector-curvature="0"
       style="fill:#333333" /></g>
	<path
		style="fill:#333333;fill-opacity:1;fill-rule:evenodd;stroke:none"
		d=""
		id="path7612-3"
		inkscape:connector-curvature="0"
		clip-path="url(#clipPath9180-5)"
		transform="translate(-356.73992,97.536327)"/>
	<g
		id="Help-8-5"
		transform="matrix(7.7083383,0,0,7.7083383,-6325.098,-5196.0209)"
		clip-path="url(#clipPath9184-1-9)"><path
       d="m 509.778,597.159 c -12.427,0 -22.5,10.074 -22.5,22.5 0,12.428 10.073,22.5 22.5,22.5 12.427,0 22.5,-10.072 22.5,-22.5 -10e-4,-12.426 -10.073,-22.5 -22.5,-22.5 z m -0.559,36.414 c -1.676,0 -3.054,-1.379 -3.054,-3.055 0,-1.676 1.378,-3.053 3.054,-3.053 1.677,0 3.054,1.377 3.054,3.053 0,1.676 -1.377,3.055 -3.054,3.055 z m 2.904,-11.791 c -0.892,1.305 -0.594,3.129 -3.052,3.129 -1.602,0 -2.385,-1.305 -2.385,-2.496 0,-4.432 6.519,-5.436 6.519,-9.086 0,-2.012 -1.34,-3.203 -3.576,-3.203 -4.767,0 -2.905,4.916 -6.518,4.916 -1.304,0 -2.421,-0.783 -2.421,-2.271 0,-3.65 4.172,-6.891 8.714,-6.891 4.769,0 9.46,2.197 9.46,7.449 10e-4,4.842 -5.55,6.703 -6.741,8.453 z"
       id="path695-4-6"
       inkscape:connector-curvature="0"
       style="fill:#333333" /></g>
	<path
		style="fill:#333333;fill-opacity:1;fill-rule:evenodd;stroke:none"
		d=""
		id="path7612-5-1"
		inkscape:connector-curvature="0"
		clip-path="url(#clipPath9180-6-77)"
		transform="translate(-254.30827,203.68892)"/>
	<g
		id="Help-6-4"
		transform="matrix(7.7083383,0,0,7.7083383,-6196.3846,-5190.986)"
		clip-path="url(#clipPath9184-9-1)"><path
       d="m 509.778,597.159 c -12.427,0 -22.5,10.074 -22.5,22.5 0,12.428 10.073,22.5 22.5,22.5 12.427,0 22.5,-10.072 22.5,-22.5 -10e-4,-12.426 -10.073,-22.5 -22.5,-22.5 z m -0.559,36.414 c -1.676,0 -3.054,-1.379 -3.054,-3.055 0,-1.676 1.378,-3.053 3.054,-3.053 1.677,0 3.054,1.377 3.054,3.053 0,1.676 -1.377,3.055 -3.054,3.055 z m 2.904,-11.791 c -0.892,1.305 -0.594,3.129 -3.052,3.129 -1.602,0 -2.385,-1.305 -2.385,-2.496 0,-4.432 6.519,-5.436 6.519,-9.086 0,-2.012 -1.34,-3.203 -3.576,-3.203 -4.767,0 -2.905,4.916 -6.518,4.916 -1.304,0 -2.421,-0.783 -2.421,-2.271 0,-3.65 4.172,-6.891 8.714,-6.891 4.769,0 9.46,2.197 9.46,7.449 10e-4,4.842 -5.55,6.703 -6.741,8.453 z"
       id="path695-0-4"
       inkscape:connector-curvature="0"
       style="fill:#333333" /></g>
	<path
		style="fill:#333333;fill-opacity:1;fill-rule:evenodd;stroke:none"
		d=""
		id="path7612-6-44"
		inkscape:connector-curvature="0"
		clip-path="url(#clipPath9180-9-9)"
		transform="translate(-125.59478,208.7238)"/>
	<text
		xml:space="preserve"
		style="font-style:normal;font-variant:normal;font-weight:bold;font-stretch:normal;line-height:0%;font-family:Arial;-inkscape-font-specification:'Arial Bold';text-align:start;letter-spacing:0px;word-spacing:0px;writing-mode:lr-tb;text-anchor:start;fill:#c0c0c0;fill-opacity:1;stroke:none"
		x="36.565117"
		y="62.011242"
		id="text3013"
		transform="scale(1.063653,0.94015623)"><tspan
       sodipodi:role="line"
       id="tspan3015"
       x="36.565117"
       y="62.011242"
       style="font-size:55.24581528px;line-height:1.25">1</tspan></text>
	<g
		id="Help-62"
		transform="matrix(7.7083383,0,0,7.7083383,-6425.8063,-5302.5362)"
		clip-path="url(#clipPath9184-4)"><path
       d="m 509.778,597.159 c -12.427,0 -22.5,10.074 -22.5,22.5 0,12.428 10.073,22.5 22.5,22.5 12.427,0 22.5,-10.072 22.5,-22.5 -10e-4,-12.426 -10.073,-22.5 -22.5,-22.5 z m -0.559,36.414 c -1.676,0 -3.054,-1.379 -3.054,-3.055 0,-1.676 1.378,-3.053 3.054,-3.053 1.677,0 3.054,1.377 3.054,3.053 0,1.676 -1.377,3.055 -3.054,3.055 z m 2.904,-11.791 c -0.892,1.305 -0.594,3.129 -3.052,3.129 -1.602,0 -2.385,-1.305 -2.385,-2.496 0,-4.432 6.519,-5.436 6.519,-9.086 0,-2.012 -1.34,-3.203 -3.576,-3.203 -4.767,0 -2.905,4.916 -6.518,4.916 -1.304,0 -2.421,-0.783 -2.421,-2.271 0,-3.65 4.172,-6.891 8.714,-6.891 4.769,0 9.46,2.197 9.46,7.449 10e-4,4.842 -5.55,6.703 -6.741,8.453 z"
       id="path695-1"
       inkscape:connector-curvature="0"
       style="fill:#333333" /></g>
	<path
		style="fill:#333333;fill-opacity:1;fill-rule:evenodd;stroke:none"
		d=""
		id="path7612-8"
		inkscape:connector-curvature="0"
		clip-path="url(#clipPath9180-3)"
		transform="translate(-355.0165,97.173656)"/>
	<g
		id="Help-8-3"
		transform="matrix(7.7083383,0,0,7.7083383,-6323.3746,-5196.3836)"
		clip-path="url(#clipPath9184-1-4)"><path
       d="m 509.778,597.159 c -12.427,0 -22.5,10.074 -22.5,22.5 0,12.428 10.073,22.5 22.5,22.5 12.427,0 22.5,-10.072 22.5,-22.5 -10e-4,-12.426 -10.073,-22.5 -22.5,-22.5 z m -0.559,36.414 c -1.676,0 -3.054,-1.379 -3.054,-3.055 0,-1.676 1.378,-3.053 3.054,-3.053 1.677,0 3.054,1.377 3.054,3.053 0,1.676 -1.377,3.055 -3.054,3.055 z m 2.904,-11.791 c -0.892,1.305 -0.594,3.129 -3.052,3.129 -1.602,0 -2.385,-1.305 -2.385,-2.496 0,-4.432 6.519,-5.436 6.519,-9.086 0,-2.012 -1.34,-3.203 -3.576,-3.203 -4.767,0 -2.905,4.916 -6.518,4.916 -1.304,0 -2.421,-0.783 -2.421,-2.271 0,-3.65 4.172,-6.891 8.714,-6.891 4.769,0 9.46,2.197 9.46,7.449 10e-4,4.842 -5.55,6.703 -6.741,8.453 z"
       id="path695-4-3"
       inkscape:connector-curvature="0"
       style="fill:#333333" /></g>
	<path
		style="fill:#333333;fill-opacity:1;fill-rule:evenodd;stroke:none"
		d=""
		id="path7612-5-8"
		inkscape:connector-curvature="0"
		clip-path="url(#clipPath9180-6-7)"
		transform="translate(-252.58485,203.32624)"/>
	<g
		id="Help-6-7"
		transform="matrix(7.7083383,0,0,7.7083383,-6194.6612,-5191.3487)"
		clip-path="url(#clipPath9184-9-3)"><path
       d="m 509.778,597.159 c -12.427,0 -22.5,10.074 -22.5,22.5 0,12.428 10.073,22.5 22.5,22.5 12.427,0 22.5,-10.072 22.5,-22.5 -10e-4,-12.426 -10.073,-22.5 -22.5,-22.5 z m -0.559,36.414 c -1.676,0 -3.054,-1.379 -3.054,-3.055 0,-1.676 1.378,-3.053 3.054,-3.053 1.677,0 3.054,1.377 3.054,3.053 0,1.676 -1.377,3.055 -3.054,3.055 z m 2.904,-11.791 c -0.892,1.305 -0.594,3.129 -3.052,3.129 -1.602,0 -2.385,-1.305 -2.385,-2.496 0,-4.432 6.519,-5.436 6.519,-9.086 0,-2.012 -1.34,-3.203 -3.576,-3.203 -4.767,0 -2.905,4.916 -6.518,4.916 -1.304,0 -2.421,-0.783 -2.421,-2.271 0,-3.65 4.172,-6.891 8.714,-6.891 4.769,0 9.46,2.197 9.46,7.449 10e-4,4.842 -5.55,6.703 -6.741,8.453 z"
       id="path695-0-6"
       inkscape:connector-curvature="0"
       style="fill:#333333" /></g>
	<path
		style="fill:#333333;fill-opacity:1;fill-rule:evenodd;stroke:none"
		d=""
		id="path7612-6-4"
		inkscape:connector-curvature="0"
		clip-path="url(#clipPath9180-9-7)"
		transform="translate(-123.87136,208.36113)"/></svg>