<?xml version="1.0" encoding="UTF-8" standalone="no"?>
<!-- Generator: Adobe Illustrator 14.0.0, SVG Export Plug-In . SVG Version: 6.00 Build 43363)  -->

<svg
   xmlns:dc="http://purl.org/dc/elements/1.1/"
   xmlns:cc="http://creativecommons.org/ns#"
   xmlns:rdf="http://www.w3.org/1999/02/22-rdf-syntax-ns#"
   xmlns="http://www.w3.org/2000/svg"
   xmlns:sodipodi="http://sodipodi.sourceforge.net/DTD/sodipodi-0.dtd"
   xmlns:inkscape="http://www.inkscape.org/namespaces/inkscape"
   version="1.1"
   x="0px"
   y="0px"
   width="128"
   height="128"
   viewBox="0 0 128 128"
   enable-background="new 0 0 780 650"
   xml:space="preserve"
   id="svg2"
   inkscape:version="0.48.5 r10040"
   sodipodi:docname="toolbar_west.svg"><metadata
     id="metadata1456"><rdf:RDF><cc:Work
         rdf:about=""><dc:format>image/svg+xml</dc:format><dc:type
           rdf:resource="http://purl.org/dc/dcmitype/StillImage" /></cc:Work></rdf:RDF></metadata><defs
     id="defs1454"><clipPath
       clipPathUnits="userSpaceOnUse"
       id="clipPath9180"><path
         sodipodi:type="arc"
         style="fill:#a9a9a9;fill-opacity:1;fill-rule:evenodd;stroke:none"
         id="path9182"
         sodipodi:cx="43.980995"
         sodipodi:cy="52.105968"
         sodipodi:rx="43.980995"
         sodipodi:ry="52.026299"
         d="m 87.96199,52.105968 a 43.980995,52.026299 0 1 1 -87.96199,0 43.980995,52.026299 0 1 1 87.96199,0 z"
         transform="matrix(1.3993902,0,0,1.1907217,3.486295,1.0575123)" /></clipPath><clipPath
       clipPathUnits="userSpaceOnUse"
       id="clipPath9184"><path
         sodipodi:type="arc"
         style="fill:#a9a9a9;fill-opacity:1;fill-rule:evenodd;stroke:none"
         id="path9186"
         sodipodi:cx="43.980995"
         sodipodi:cy="52.105968"
         sodipodi:rx="43.980995"
         sodipodi:ry="52.026299"
         d="m 87.96199,52.105968 a 43.980995,52.026299 0 1 1 -87.96199,0 43.980995,52.026299 0 1 1 87.96199,0 z"
         transform="matrix(0.1815424,0,0,0.1544719,788.01368,700.63965)" /></clipPath></defs><sodipodi:namedview
     pagecolor="#ffffff"
     bordercolor="#666666"
     borderopacity="1"
     objecttolerance="10"
     gridtolerance="10"
     guidetolerance="10"
     inkscape:pageopacity="0"
     inkscape:pageshadow="2"
     inkscape:window-width="1236"
     inkscape:window-height="848"
     id="namedview1452"
     showgrid="false"
     inkscape:zoom="0.93222085"
     inkscape:cx="32.355138"
     inkscape:cy="57.716227"
     inkscape:window-x="498"
     inkscape:window-y="39"
     inkscape:window-maximized="0"
     inkscape:current-layer="svg2" /><g
     id="Help"
     transform="matrix(7.7083383,0,0,7.7083383,-6070.7897,-5399.7099)"
     clip-path="url(#clipPath9184)"><path
       d="m 509.778,597.159 c -12.427,0 -22.5,10.074 -22.5,22.5 0,12.428 10.073,22.5 22.5,22.5 12.427,0 22.5,-10.072 22.5,-22.5 -10e-4,-12.426 -10.073,-22.5 -22.5,-22.5 z m -0.559,36.414 c -1.676,0 -3.054,-1.379 -3.054,-3.055 0,-1.676 1.378,-3.053 3.054,-3.053 1.677,0 3.054,1.377 3.054,3.053 0,1.676 -1.377,3.055 -3.054,3.055 z m 2.904,-11.791 c -0.892,1.305 -0.594,3.129 -3.052,3.129 -1.602,0 -2.385,-1.305 -2.385,-2.496 0,-4.432 6.519,-5.436 6.519,-9.086 0,-2.012 -1.34,-3.203 -3.576,-3.203 -4.767,0 -2.905,4.916 -6.518,4.916 -1.304,0 -2.421,-0.783 -2.421,-2.271 0,-3.65 4.172,-6.891 8.714,-6.891 4.769,0 9.46,2.197 9.46,7.449 10e-4,4.842 -5.55,6.703 -6.741,8.453 z"
       id="path695"
       inkscape:connector-curvature="0"
       style="fill:#333333" /></g><style
     id="style8"
     type="text/css">
      .Border { fill: lightGray; stroke: black; stroke-width: 4; }
      .Label { font-size:24; font-family:Arial; fill:black; }
   </style><style
     id="style8-7"
     type="text/css">
      .Border { fill: lightGray; stroke: black; stroke-width: 4; }
      .Label { font-size:24; font-family:Arial; fill:black; }
   </style><style
     id="style8-3"
     type="text/css">
      .Border { fill: lightGray; stroke: black; stroke-width: 4; }
      .Label { font-size:24; font-family:Arial; fill:black; }
   </style><style
     id="style8-6"
     type="text/css">
      .Border { fill: lightGray; stroke: black; stroke-width: 4; }
      .Label { font-size:24; font-family:Arial; fill:black; }
   </style><style
     type="text/css"
     id="style8-1">
      .Border { fill: lightGray; stroke: black; stroke-width: 4; }
      .Label { font-size:24; font-family:Arial; fill:black; }
   </style><style
     type="text/css"
     id="style8-7-0">
      .Border { fill: lightGray; stroke: black; stroke-width: 4; }
      .Label { font-size:24; font-family:Arial; fill:black; }
   </style><style
     type="text/css"
     id="style8-3-2">
      .Border { fill: lightGray; stroke: black; stroke-width: 4; }
      .Label { font-size:24; font-family:Arial; fill:black; }
   </style><style
     type="text/css"
     id="style8-6-7">
      .Border { fill: lightGray; stroke: black; stroke-width: 4; }
      .Label { font-size:24; font-family:Arial; fill:black; }
   </style><path
     style="fill:#333333;fill-opacity:1;fill-rule:evenodd;stroke:none"
     d=""
     id="path7612"
     inkscape:connector-curvature="0"
     clip-path="url(#clipPath9180)" /><g
     id="Compass"
     transform="matrix(2.8211655,0,0,2.8211655,-528.81186,-159.36609)"
     style="fill:#c0c0c0"><g
       id="g1190"
       style="fill:#c0c0c0"><path
         d="m 232.569,79.617 -16.755,-3.49 2.864,-5.115 -5.023,3.029 -3.585,-16.924 -3.585,16.924 -5.023,-3.029 2.864,5.115 -16.755,3.49 h -0.001 l 0.001,0 0,0 16.755,3.49 -2.864,5.114 5.023,-3.029 3.585,16.925 3.585,-16.925 5.023,3.029 -2.864,-5.114 16.755,-3.49 0,0 0,0 0,0 z m -22.499,4.302 c -2.376,0 -4.302,-1.925 -4.302,-4.301 0,-2.375 1.926,-4.301 4.302,-4.301 2.376,0 4.302,1.926 4.302,4.301 0,2.376 -1.926,4.301 -4.302,4.301 z"
         id="path1192"
         inkscape:connector-curvature="0"
         style="stroke-width:1;stroke-miterlimit:4;stroke-dasharray:none;fill-opacity:1;stroke-dashoffset:0;stroke:none;stroke-opacity:1;fill-rule:evenodd;stroke-linejoin:round;fill:#c0c0c0" /><g
         id="g1194"
         style="fill:#c0c0c0"><path
           d="m 199.03,75.203 c 1.204,-2.997 3.589,-5.393 6.58,-6.609 l 1.242,-5.866 c -6.921,1.314 -12.371,6.771 -13.676,13.694 l 5.854,-1.219 z"
           id="path1196"
           inkscape:connector-curvature="0"
           style="stroke-width:1;stroke-miterlimit:4;stroke-dasharray:none;fill-opacity:1;stroke-dashoffset:0;stroke:none;stroke-opacity:1;fill-rule:evenodd;stroke-linejoin:round;fill:#c0c0c0" /><path
           d="m 205.614,90.663 c -3,-1.219 -5.391,-3.624 -6.592,-6.632 l -5.85,-1.218 c 1.299,6.935 6.754,12.402 13.684,13.715 l -1.242,-5.865 z"
           id="path1202"
           inkscape:connector-curvature="0"
           style="stroke-width:1;stroke-miterlimit:4;stroke-dasharray:none;fill-opacity:1;stroke-dashoffset:0;stroke:none;stroke-opacity:1;fill-rule:evenodd;stroke-linejoin:round;fill:#c0c0c0" /></g></g></g></svg>