<?xml version="1.0" encoding="UTF-8" standalone="no"?>
<!-- Generator: Adobe Illustrator 14.0.0, SVG Export Plug-In . SVG Version: 6.00 Build 43363)  -->

<svg
   xmlns:dc="http://purl.org/dc/elements/1.1/"
   xmlns:cc="http://creativecommons.org/ns#"
   xmlns:rdf="http://www.w3.org/1999/02/22-rdf-syntax-ns#"
   xmlns:svg="http://www.w3.org/2000/svg"
   xmlns="http://www.w3.org/2000/svg"
   xmlns:sodipodi="http://sodipodi.sourceforge.net/DTD/sodipodi-0.dtd"
   xmlns:inkscape="http://www.inkscape.org/namespaces/inkscape"
   version="1.1"
   x="0px"
   y="0px"
   width="128"
   height="128"
   viewBox="0 0 128 128"
   enable-background="new 0 0 780 650"
   xml:space="preserve"
   id="svg2"
   inkscape:version="0.48.5 r10040"
   sodipodi:docname="toolbar_widen.svg"><metadata
     id="metadata1456"><rdf:RDF><cc:Work
         rdf:about=""><dc:format>image/svg+xml</dc:format><dc:type
           rdf:resource="http://purl.org/dc/dcmitype/StillImage" /></cc:Work></rdf:RDF></metadata><defs
     id="defs1454"><clipPath
       clipPathUnits="userSpaceOnUse"
       id="clipPath9180"><path
         sodipodi:type="arc"
         style="fill:#a9a9a9;fill-opacity:1;fill-rule:evenodd;stroke:none"
         id="path9182"
         sodipodi:cx="43.980995"
         sodipodi:cy="52.105968"
         sodipodi:rx="43.980995"
         sodipodi:ry="52.026299"
         d="m 87.96199,52.105968 a 43.980995,52.026299 0 1 1 -87.96199,0 43.980995,52.026299 0 1 1 87.96199,0 z"
         transform="matrix(1.3993902,0,0,1.1907217,3.486295,1.0575123)" /></clipPath><clipPath
       clipPathUnits="userSpaceOnUse"
       id="clipPath9184"><path
         sodipodi:type="arc"
         style="fill:#a9a9a9;fill-opacity:1;fill-rule:evenodd;stroke:none"
         id="path9186"
         sodipodi:cx="43.980995"
         sodipodi:cy="52.105968"
         sodipodi:rx="43.980995"
         sodipodi:ry="52.026299"
         d="m 87.96199,52.105968 a 43.980995,52.026299 0 1 1 -87.96199,0 43.980995,52.026299 0 1 1 87.96199,0 z"
         transform="matrix(0.1815424,0,0,0.1544719,788.01368,700.63965)" /></clipPath></defs><sodipodi:namedview
     pagecolor="#ffffff"
     bordercolor="#666666"
     borderopacity="1"
     objecttolerance="10"
     gridtolerance="10"
     guidetolerance="10"
     inkscape:pageopacity="0"
     inkscape:pageshadow="2"
     inkscape:window-width="1236"
     inkscape:window-height="848"
     id="namedview1452"
     showgrid="false"
     inkscape:zoom="3.7288835"
     inkscape:cx="15.813526"
     inkscape:cy="57.716227"
     inkscape:window-x="498"
     inkscape:window-y="39"
     inkscape:window-maximized="0"
     inkscape:current-layer="svg2" /><g
     id="Help"
     transform="matrix(7.7083383,0,0,7.7083383,-6070.7897,-5399.7099)"
     clip-path="url(#clipPath9184)"><path
       d="m 509.778,597.159 c -12.427,0 -22.5,10.074 -22.5,22.5 0,12.428 10.073,22.5 22.5,22.5 12.427,0 22.5,-10.072 22.5,-22.5 -10e-4,-12.426 -10.073,-22.5 -22.5,-22.5 z m -0.559,36.414 c -1.676,0 -3.054,-1.379 -3.054,-3.055 0,-1.676 1.378,-3.053 3.054,-3.053 1.677,0 3.054,1.377 3.054,3.053 0,1.676 -1.377,3.055 -3.054,3.055 z m 2.904,-11.791 c -0.892,1.305 -0.594,3.129 -3.052,3.129 -1.602,0 -2.385,-1.305 -2.385,-2.496 0,-4.432 6.519,-5.436 6.519,-9.086 0,-2.012 -1.34,-3.203 -3.576,-3.203 -4.767,0 -2.905,4.916 -6.518,4.916 -1.304,0 -2.421,-0.783 -2.421,-2.271 0,-3.65 4.172,-6.891 8.714,-6.891 4.769,0 9.46,2.197 9.46,7.449 10e-4,4.842 -5.55,6.703 -6.741,8.453 z"
       id="path695"
       inkscape:connector-curvature="0"
       style="fill:#333333" /></g><style
     id="style8"
     type="text/css">
      .Border { fill: lightGray; stroke: black; stroke-width: 4; }
      .Label { font-size:24; font-family:Arial; fill:black; }
   </style><style
     id="style8-7"
     type="text/css">
      .Border { fill: lightGray; stroke: black; stroke-width: 4; }
      .Label { font-size:24; font-family:Arial; fill:black; }
   </style><style
     id="style8-3"
     type="text/css">
      .Border { fill: lightGray; stroke: black; stroke-width: 4; }
      .Label { font-size:24; font-family:Arial; fill:black; }
   </style><style
     id="style8-6"
     type="text/css">
      .Border { fill: lightGray; stroke: black; stroke-width: 4; }
      .Label { font-size:24; font-family:Arial; fill:black; }
   </style><style
     type="text/css"
     id="style8-1">
      .Border { fill: lightGray; stroke: black; stroke-width: 4; }
      .Label { font-size:24; font-family:Arial; fill:black; }
   </style><style
     type="text/css"
     id="style8-7-0">
      .Border { fill: lightGray; stroke: black; stroke-width: 4; }
      .Label { font-size:24; font-family:Arial; fill:black; }
   </style><style
     type="text/css"
     id="style8-3-2">
      .Border { fill: lightGray; stroke: black; stroke-width: 4; }
      .Label { font-size:24; font-family:Arial; fill:black; }
   </style><style
     type="text/css"
     id="style8-6-7">
      .Border { fill: lightGray; stroke: black; stroke-width: 4; }
      .Label { font-size:24; font-family:Arial; fill:black; }
   </style><path
     style="fill:#333333;fill-opacity:1;fill-rule:evenodd;stroke:none"
     d=""
     id="path7612"
     inkscape:connector-curvature="0"
     clip-path="url(#clipPath9180)" /><path
     style="fill:#333333;fill-opacity:1;fill-rule:evenodd;stroke:none"
     d=""
     id="path4021"
     inkscape:connector-curvature="0" /><path
     style="fill:#333333;fill-opacity:1;fill-rule:evenodd;stroke:none"
     d=""
     id="path4025"
     inkscape:connector-curvature="0" /><g
     style="fill:#c0c0c0"
     id="g4029"
     transform="matrix(0.64692055,0.76255741,-0.76255741,0.64692055,69.783605,5.205876)"><path
       inkscape:connector-curvature="0"
       id="path4017"
       d="m 45.463624,86.862704 c 0.110725,-5.905236 1.82191,-24.193739 2.280297,-24.370958 0.536216,-0.207308 24.205883,20.041477 24.205883,20.707504 0,0.255893 -5.546667,1.768021 -12.325926,3.360283 -6.779259,1.592262 -12.752592,3.055448 -13.274074,3.251524 -0.673306,0.253163 -0.930185,-0.601483 -0.88618,-2.948353 z"
       style="fill:#c0c0c0;fill-opacity:1;fill-rule:evenodd;stroke:none" /><path
       inkscape:connector-curvature="0"
       id="path4019"
       d="M 70.432767,59.92419 C 63.966397,54.281681 58.583952,49.420954 58.471778,49.122572 c -0.253259,-0.673667 27.908779,-9.413477 28.482877,-8.839379 0.52394,0.52394 -3.740833,30.018589 -4.330664,29.950342 -0.238803,-0.02763 -5.724854,-4.666836 -12.191224,-10.309345 z"
       style="fill:#c0c0c0;fill-opacity:1;fill-rule:evenodd;stroke:none" /></g><path
     style="fill:#c0c0c0;fill-opacity:1;fill-rule:evenodd;stroke:none"
     d="M 76.888905,38.382702 C 68.360594,29.526286 61.299185,22.280127 61.196884,22.280127 c -0.102302,0 -7.163827,7.188525 -15.692275,15.974499 L 29.998336,54.229125 28.377542,52.66913 c -1.902174,-1.830825 -2.32222,-2.304808 -2.243539,-2.531635 0.03188,-0.09191 7.956774,-8.286089 17.610873,-18.20929 l 17.552909,-18.042185 0.95129,1.082189 c 0.52321,0.595204 8.373083,8.772365 17.444163,18.171468 9.07108,9.399104 16.523798,17.168907 16.561598,17.266231 0.0378,0.09733 -0.815217,1.054997 -1.895592,2.128162 l -1.964317,1.951206 -15.506022,-16.102574 0,0 z"
     id="path3855"
     inkscape:connector-curvature="0" /><path
     inkscape:connector-curvature="0"
     id="path4027"
     d="m 92.78975,71.284558 c -5.89003,-10.311396 -1.02799,-22.417076 9.69226,-24.132111 15.82083,-2.531036 26.33765,18.712127 14.20586,28.694752 -7.14463,5.878947 -19.25437,3.566953 -23.89812,-4.562641 z"
     style="fill:#c0c0c0;fill-opacity:1;fill-rule:evenodd;stroke:none" /><path
     style="fill:#c0c0c0;fill-opacity:1;fill-rule:evenodd;stroke:none"
     d="M 7.6623112,71.04636 C 1.7722772,60.73496 6.6343152,48.629281 17.354556,46.914251 33.175393,44.383212 43.692205,65.626381 31.560426,75.609002 24.415802,81.487948 12.30606,79.175952 7.6623112,71.04636 z"
     id="path4015"
     inkscape:connector-curvature="0" /></svg>