<?xml version="1.0" encoding="UTF-8" standalone="no"?>
<!-- Generator: Adobe Illustrator 14.0.0, SVG Export Plug-In . SVG Version: 6.00 Build 43363)  -->

<svg
   xmlns:dc="http://purl.org/dc/elements/1.1/"
   xmlns:cc="http://creativecommons.org/ns#"
   xmlns:rdf="http://www.w3.org/1999/02/22-rdf-syntax-ns#"
   xmlns:svg="http://www.w3.org/2000/svg"
   xmlns="http://www.w3.org/2000/svg"
   xmlns:sodipodi="http://sodipodi.sourceforge.net/DTD/sodipodi-0.dtd"
   xmlns:inkscape="http://www.inkscape.org/namespaces/inkscape"
   version="1.1"
   x="0px"
   y="0px"
   width="136.53334"
   height="136.53334"
   viewBox="0 0 128 128"
   enable-background="new 0 0 780 650"
   xml:space="preserve"
   id="svg2"
   inkscape:version="0.92.1 r15371"
   sodipodi:docname="toolbar_shrink.svg"><metadata
     id="metadata1456"><rdf:RDF><cc:Work
         rdf:about=""><dc:format>image/svg+xml</dc:format><dc:type
           rdf:resource="http://purl.org/dc/dcmitype/StillImage" /></cc:Work></rdf:RDF></metadata><defs
     id="defs1454"><clipPath
       clipPathUnits="userSpaceOnUse"
       id="clipPath9180"><ellipse
         style="fill:#a9a9a9;fill-opacity:1;fill-rule:evenodd;stroke:none"
         id="path9182"
         transform="matrix(1.3993902,0,0,1.1907217,3.486295,1.0575123)"
         cx="43.980995"
         cy="52.105968"
         rx="43.980995"
         ry="52.026299" /></clipPath><clipPath
       clipPathUnits="userSpaceOnUse"
       id="clipPath9184"><ellipse
         style="fill:#a9a9a9;fill-opacity:1;fill-rule:evenodd;stroke:none"
         id="path9186"
         transform="matrix(0.1815424,0,0,0.1544719,788.01368,700.63965)"
         cx="43.980995"
         cy="52.105968"
         rx="43.980995"
         ry="52.026299" /></clipPath></defs><sodipodi:namedview
     pagecolor="#ffffff"
     bordercolor="#666666"
     borderopacity="1"
     objecttolerance="10"
     gridtolerance="10"
     guidetolerance="10"
     inkscape:pageopacity="0"
     inkscape:pageshadow="2"
     inkscape:window-width="1236"
     inkscape:window-height="848"
     id="namedview1452"
     showgrid="false"
     inkscape:zoom="1.8644417"
     inkscape:cx="84.584384"
     inkscape:cy="51.432454"
     inkscape:window-x="777"
     inkscape:window-y="118"
     inkscape:window-maximized="0"
     inkscape:current-layer="svg2" /><g
     id="Help"
     transform="matrix(7.7083383,0,0,7.7083383,-6070.7897,-5399.7099)"
     clip-path="url(#clipPath9184)"><path
       d="m 509.778,597.159 c -12.427,0 -22.5,10.074 -22.5,22.5 0,12.428 10.073,22.5 22.5,22.5 12.427,0 22.5,-10.072 22.5,-22.5 -10e-4,-12.426 -10.073,-22.5 -22.5,-22.5 z m -0.559,36.414 c -1.676,0 -3.054,-1.379 -3.054,-3.055 0,-1.676 1.378,-3.053 3.054,-3.053 1.677,0 3.054,1.377 3.054,3.053 0,1.676 -1.377,3.055 -3.054,3.055 z m 2.904,-11.791 c -0.892,1.305 -0.594,3.129 -3.052,3.129 -1.602,0 -2.385,-1.305 -2.385,-2.496 0,-4.432 6.519,-5.436 6.519,-9.086 0,-2.012 -1.34,-3.203 -3.576,-3.203 -4.767,0 -2.905,4.916 -6.518,4.916 -1.304,0 -2.421,-0.783 -2.421,-2.271 0,-3.65 4.172,-6.891 8.714,-6.891 4.769,0 9.46,2.197 9.46,7.449 10e-4,4.842 -5.55,6.703 -6.741,8.453 z"
       id="path695"
       inkscape:connector-curvature="0"
       style="fill:#333333" /></g><style
     id="style8"
     type="text/css">
      .Border { fill: lightGray; stroke: black; stroke-width: 4; }
      .Label { font-size:24; font-family:Arial; fill:black; }
   </style><style
     id="style8-7"
     type="text/css">
      .Border { fill: lightGray; stroke: black; stroke-width: 4; }
      .Label { font-size:24; font-family:Arial; fill:black; }
   </style><style
     id="style8-3"
     type="text/css">
      .Border { fill: lightGray; stroke: black; stroke-width: 4; }
      .Label { font-size:24; font-family:Arial; fill:black; }
   </style><style
     id="style8-6"
     type="text/css">
      .Border { fill: lightGray; stroke: black; stroke-width: 4; }
      .Label { font-size:24; font-family:Arial; fill:black; }
   </style><style
     type="text/css"
     id="style8-1">
      .Border { fill: lightGray; stroke: black; stroke-width: 4; }
      .Label { font-size:24; font-family:Arial; fill:black; }
   </style><style
     type="text/css"
     id="style8-7-0">
      .Border { fill: lightGray; stroke: black; stroke-width: 4; }
      .Label { font-size:24; font-family:Arial; fill:black; }
   </style><style
     type="text/css"
     id="style8-3-2">
      .Border { fill: lightGray; stroke: black; stroke-width: 4; }
      .Label { font-size:24; font-family:Arial; fill:black; }
   </style><style
     type="text/css"
     id="style8-6-7">
      .Border { fill: lightGray; stroke: black; stroke-width: 4; }
      .Label { font-size:24; font-family:Arial; fill:black; }
   </style><path
     style="fill:#333333;fill-opacity:1;fill-rule:evenodd;stroke:none"
     d=""
     id="path7612"
     inkscape:connector-curvature="0"
     clip-path="url(#clipPath9180)" /><g
     id="g3031"
     transform="translate(-3.0056629,-1.0169887)"
     style="fill:#c0c0c0"><path
       inkscape:connector-curvature="0"
       id="path4017"
       d="m 48.03557,39.890567 c 0.510057,-5.884208 3.454836,-24.015005 3.924164,-24.1608 0.549015,-0.170549 22.79427,21.633466 22.749202,22.297966 -0.01732,0.255307 -5.653589,1.388646 -12.525053,2.518531 -6.871463,1.129885 -12.930114,2.185524 -13.463669,2.345863 -0.688893,0.207023 -0.887352,-0.663046 -0.684644,-3.00156 z"
       style="fill:#c0c0c0;fill-opacity:1;fill-rule:evenodd;stroke:none" /><path
       inkscape:connector-curvature="0"
       id="path4019"
       d="M 28.491796,62.49596 C 22.422055,56.428828 17.380854,51.215031 17.289128,50.909743 c -0.207094,-0.68926 28.481788,-7.503416 29.015723,-6.891787 0.487286,0.558193 -5.763508,29.696658 -6.347369,29.588656 -0.236386,-0.04373 -5.395945,-5.04352 -11.465686,-11.110652 z"
       style="fill:#c0c0c0;fill-opacity:1;fill-rule:evenodd;stroke:none" /></g><path
     style="fill:#333333;fill-opacity:1;fill-rule:evenodd;stroke:none"
     d=""
     id="path4021"
     inkscape:connector-curvature="0" /><path
     style="fill:#333333;fill-opacity:1;fill-rule:evenodd;stroke:none"
     d=""
     id="path4025"
     inkscape:connector-curvature="0" /><g
     id="g9399"
     transform="translate(-7.5424718,-9.0509661)"><path
       inkscape:connector-curvature="0"
       id="path4015"
       d="M 54.695198,125.91514 C 43.195991,122.66275 37.904819,109.57846 44.14749,99.832233 c 9.212871,-14.383418 31.775574,-6.410231 30.477159,10.769957 -0.76466,10.11773 -10.863384,17.87717 -19.929451,15.31295 z"
       style="fill:#c0c0c0;fill-opacity:1;fill-rule:evenodd;stroke:none;stroke-width:1.04750836" /><path
       style="fill:#c0c0c0;fill-opacity:1;fill-rule:evenodd;stroke:none;stroke-width:1.05521846"
       d="M 100.23564,78.11172 C 88.736442,74.811269 83.445268,61.533661 89.687942,51.643414 98.900813,37.047487 121.46351,45.138472 120.16509,62.572521 119.40043,72.839742 109.30171,80.713826 100.23564,78.11172 Z"
       id="path4027"
       inkscape:connector-curvature="0" /><path
       inkscape:connector-curvature="0"
       id="path4037"
       d="m 48.458678,118.88174 -2.474521,-2.55128 30.798987,-31.992274 30.798986,-31.992279 2.70214,2.70026 2.70215,2.700262 -20.07427,20.79173 C 70.260029,101.99987 51.310343,121.433 51.084443,121.433 c -0.08318,0 -1.264778,-1.14806 -2.625765,-2.55126 z"
       style="fill:#c0c0c0;fill-opacity:1;fill-rule:evenodd;stroke:none" /></g><style
     type="text/css"
     id="style8-2">
      .Border { fill: lightGray; stroke: black; stroke-width: 4; }
      .Label { font-size:24; font-family:Arial; fill:black; }
   </style><style
     type="text/css"
     id="style8-7-2">
      .Border { fill: lightGray; stroke: black; stroke-width: 4; }
      .Label { font-size:24; font-family:Arial; fill:black; }
   </style><style
     type="text/css"
     id="style8-3-8">
      .Border { fill: lightGray; stroke: black; stroke-width: 4; }
      .Label { font-size:24; font-family:Arial; fill:black; }
   </style><style
     type="text/css"
     id="style8-6-9">
      .Border { fill: lightGray; stroke: black; stroke-width: 4; }
      .Label { font-size:24; font-family:Arial; fill:black; }
   </style><style
     id="style8-1-7"
     type="text/css">
      .Border { fill: lightGray; stroke: black; stroke-width: 4; }
      .Label { font-size:24; font-family:Arial; fill:black; }
   </style><style
     id="style8-7-0-3"
     type="text/css">
      .Border { fill: lightGray; stroke: black; stroke-width: 4; }
      .Label { font-size:24; font-family:Arial; fill:black; }
   </style><style
     id="style8-3-2-6"
     type="text/css">
      .Border { fill: lightGray; stroke: black; stroke-width: 4; }
      .Label { font-size:24; font-family:Arial; fill:black; }
   </style><style
     id="style8-6-7-1"
     type="text/css">
      .Border { fill: lightGray; stroke: black; stroke-width: 4; }
      .Label { font-size:24; font-family:Arial; fill:black; }
   </style></svg>
