<?xml version="1.0" encoding="UTF-8" standalone="no"?>
<!-- Generator: Adobe Illustrator 14.0.0, SVG Export Plug-In . SVG Version: 6.00 Build 43363)  -->

<svg
   xmlns:dc="http://purl.org/dc/elements/1.1/"
   xmlns:cc="http://creativecommons.org/ns#"
   xmlns:rdf="http://www.w3.org/1999/02/22-rdf-syntax-ns#"
   xmlns:svg="http://www.w3.org/2000/svg"
   xmlns="http://www.w3.org/2000/svg"
   xmlns:sodipodi="http://sodipodi.sourceforge.net/DTD/sodipodi-0.dtd"
   xmlns:inkscape="http://www.inkscape.org/namespaces/inkscape"
   version="1.1"
   x="0px"
   y="0px"
   width="136.53334"
   height="136.53334"
   viewBox="0 0 128 128"
   enable-background="new 0 0 780 650"
   xml:space="preserve"
   id="svg2"
   inkscape:version="0.92.1 r15371"
   sodipodi:docname="toolbar_home.svg"><metadata
     id="metadata1456"><rdf:RDF><cc:Work
         rdf:about=""><dc:format>image/svg+xml</dc:format><dc:type
           rdf:resource="http://purl.org/dc/dcmitype/StillImage" /></cc:Work></rdf:RDF></metadata><defs
     id="defs1454" /><sodipodi:namedview
     pagecolor="#ffffff"
     bordercolor="#666666"
     borderopacity="1"
     objecttolerance="10"
     gridtolerance="10"
     guidetolerance="10"
     inkscape:pageopacity="0"
     inkscape:pageshadow="2"
     inkscape:window-width="1237"
     inkscape:window-height="455"
     id="namedview1452"
     showgrid="false"
     inkscape:zoom="0.4897461"
     inkscape:cx="13.335993"
     inkscape:cy="202.57786"
     inkscape:window-x="88"
     inkscape:window-y="115"
     inkscape:window-maximized="0"
     inkscape:current-layer="svg2" /><g
     id="Help"
     transform="matrix(7.7083383,0,0,7.7083383,-6070.7897,-5399.7099)"><path
       d="m 509.778,597.159 c -12.427,0 -22.5,10.074 -22.5,22.5 0,12.428 10.073,22.5 22.5,22.5 12.427,0 22.5,-10.072 22.5,-22.5 -10e-4,-12.426 -10.073,-22.5 -22.5,-22.5 z m -0.559,36.414 c -1.676,0 -3.054,-1.379 -3.054,-3.055 0,-1.676 1.378,-3.053 3.054,-3.053 1.677,0 3.054,1.377 3.054,3.053 0,1.676 -1.377,3.055 -3.054,3.055 z m 2.904,-11.791 c -0.892,1.305 -0.594,3.129 -3.052,3.129 -1.602,0 -2.385,-1.305 -2.385,-2.496 0,-4.432 6.519,-5.436 6.519,-9.086 0,-2.012 -1.34,-3.203 -3.576,-3.203 -4.767,0 -2.905,4.916 -6.518,4.916 -1.304,0 -2.421,-0.783 -2.421,-2.271 0,-3.65 4.172,-6.891 8.714,-6.891 4.769,0 9.46,2.197 9.46,7.449 10e-4,4.842 -5.55,6.703 -6.741,8.453 z"
       id="path695"
       inkscape:connector-curvature="0"
       style="fill:#333333" /></g><style
     id="style8"
     type="text/css">
      .Border { fill: lightGray; stroke: black; stroke-width: 4; }
      .Label { font-size:24; font-family:Arial; fill:black; }
   </style><style
     id="style8-7"
     type="text/css">
      .Border { fill: lightGray; stroke: black; stroke-width: 4; }
      .Label { font-size:24; font-family:Arial; fill:black; }
   </style><style
     id="style8-3"
     type="text/css">
      .Border { fill: lightGray; stroke: black; stroke-width: 4; }
      .Label { font-size:24; font-family:Arial; fill:black; }
   </style><style
     id="style8-6"
     type="text/css">
      .Border { fill: lightGray; stroke: black; stroke-width: 4; }
      .Label { font-size:24; font-family:Arial; fill:black; }
   </style><g
     id="g6540"
     transform="matrix(2.4051089,0,0,2.4051089,-936.71341,-1196.5062)"><g
       id="g6530"><path
         style="fill:#231f20"
         inkscape:connector-curvature="0"
         d="m 433,547 h -12 c -0.6,0 -1,-0.4 -1,-1 v -13 h -8 v 13 c 0,0.6 -0.4,1 -1,1 h -12 c -0.6,0 -1,-0.4 -1,-1 v -20 c 0,-0.6 0.4,-1 1,-1 0.6,0 1,0.4 1,1 v 19 h 10 v -13 c 0,-0.6 0.4,-1 1,-1 h 10 c 0.6,0 1,0.4 1,1 v 13 h 10 v -18 c 0,-0.6 0.4,-1 1,-1 0.6,0 1,0.4 1,1 v 19 c 0,0.6 -0.4,1 -1,1 z"
         id="path6528" /></g><g
       id="g6534"><path
         style="fill:#231f20"
         inkscape:connector-curvature="0"
         d="m 439,526 c -0.3,0 -0.5,-0.1 -0.7,-0.3 L 416,503.4 393.7,525.7 c -0.4,0.4 -1,0.4 -1.4,0 -0.4,-0.4 -0.4,-1 0,-1.4 l 23,-23 c 0.4,-0.4 1,-0.4 1.4,0 l 23,23 c 0.4,0.4 0.4,1 0,1.4 -0.2,0.2 -0.4,0.3 -0.7,0.3 z"
         id="path6532" /></g><g
       id="g6538"><path
         style="fill:#231f20"
         inkscape:connector-curvature="0"
         d="m 431,512 c -0.6,0 -1,-0.4 -1,-1 v -6 h -6 c -0.6,0 -1,-0.4 -1,-1 0,-0.6 0.4,-1 1,-1 h 7 c 0.6,0 1,0.4 1,1 v 7 c 0,0.6 -0.4,1 -1,1 z"
         id="path6536" /></g></g></svg>